<svg xmlns="http://www.w3.org/2000/svg" xmlns:xlink="http://www.w3.org/1999/xlink" width="2000" zoomAndPan="magnify" viewBox="0 0 1500 1499.999933" height="2000" preserveAspectRatio="xMidYMid meet" version="1.0"><defs><clipPath id="id1"><path d="M 435 1145 L 1065 1145 L 1065 1384.375 L 435 1384.375 Z M 435 1145 " clip-rule="nonzero"/></clipPath><clipPath id="id2"><path d="M 131.597656 303.625 L 1368.347656 303.625 L 1368.347656 1146 L 131.597656 1146 Z M 131.597656 303.625 " clip-rule="nonzero"/></clipPath></defs><g clip-path="url(#id1)"><path fill="rgb(43.139648%, 51.368713%, 71.759033%)" d="M 1001.277344 1334.105469 C 959.644531 1334.105469 925.886719 1300.34375 925.886719 1258.703125 L 925.886719 1145.601562 L 574.058594 1145.601562 L 574.058594 1258.703125 C 574.058594 1300.34375 540.296875 1334.105469 498.664062 1334.105469 L 435.839844 1334.105469 L 435.839844 1384.375 L 1064.105469 1384.375 L 1064.105469 1334.105469 L 1001.277344 1334.105469 " fill-opacity="1" fill-rule="nonzero"/></g><path fill="rgb(27.449036%, 37.649536%, 53.729248%)" d="M 925.886719 1195.871094 L 574.058594 1195.871094 L 574.058594 1145.601562 L 925.886719 1145.601562 L 925.886719 1195.871094 " fill-opacity="1" fill-rule="nonzero"/><g clip-path="url(#id2)"><path fill="rgb(43.139648%, 51.368713%, 71.759033%)" d="M 1368.183594 1145.601562 L 131.757812 1145.601562 L 131.757812 303.625 L 1368.183594 303.625 L 1368.183594 1145.601562 " fill-opacity="1" fill-rule="nonzero"/></g><path fill="rgb(50.19989%, 83.918762%, 98.429871%)" d="M 182.019531 1045.066406 L 182.019531 353.890625 L 1317.921875 353.890625 L 1317.921875 1045.066406 L 182.019531 1045.066406 " fill-opacity="1" fill-rule="nonzero"/><path fill="rgb(27.449036%, 74.508667%, 90.979004%)" d="M 182.019531 1045.066406 L 182.019531 1019.933594 L 1317.921875 1019.933594 L 1317.921875 1045.066406 L 182.019531 1045.066406 " fill-opacity="1" fill-rule="nonzero"/><path fill="rgb(92.939758%, 93.728638%, 94.509888%)" d="M 1101.800781 938.25 L 398.144531 938.25 C 384.261719 938.25 373.011719 927 373.011719 913.117188 L 373.011719 460.710938 C 373.011719 446.828125 384.261719 435.574219 398.144531 435.574219 L 1101.800781 435.574219 C 1115.679688 435.574219 1126.929688 446.828125 1126.929688 460.710938 L 1126.929688 913.117188 C 1126.929688 927 1115.679688 938.25 1101.800781 938.25 " fill-opacity="1" fill-rule="nonzero"/><path fill="rgb(43.139648%, 51.368713%, 71.759033%)" d="M 1126.929688 523.542969 L 373.011719 523.542969 L 373.011719 460.710938 C 373.011719 446.828125 384.261719 435.574219 398.144531 435.574219 L 1101.800781 435.574219 C 1115.679688 435.574219 1126.929688 446.828125 1126.929688 460.710938 L 1126.929688 523.542969 " fill-opacity="1" fill-rule="nonzero"/><path fill="rgb(100%, 69.018555%, 66.668701%)" d="M 411.964844 479.558594 C 411.964844 468.457031 420.96875 459.453125 432.070312 459.453125 C 443.171875 459.453125 452.175781 468.457031 452.175781 479.558594 C 452.175781 490.664062 443.171875 499.667969 432.070312 499.667969 C 420.96875 499.667969 411.964844 490.664062 411.964844 479.558594 " fill-opacity="1" fill-rule="nonzero"/><path fill="rgb(100%, 89.019775%, 32.159424%)" d="M 479.816406 479.558594 C 479.816406 468.457031 488.820312 459.453125 499.921875 459.453125 C 511.023438 459.453125 520.027344 468.457031 520.027344 479.558594 C 520.027344 490.664062 511.023438 499.667969 499.921875 499.667969 C 488.820312 499.667969 479.816406 490.664062 479.816406 479.558594 " fill-opacity="1" fill-rule="nonzero"/><path fill="rgb(59.609985%, 79.219055%, 41.178894%)" d="M 547.671875 479.558594 C 547.671875 468.457031 556.671875 459.453125 567.773438 459.453125 C 578.878906 459.453125 587.878906 468.457031 587.878906 479.558594 C 587.878906 490.664062 578.878906 499.667969 567.773438 499.667969 C 556.671875 499.667969 547.671875 490.664062 547.671875 479.558594 " fill-opacity="1" fill-rule="nonzero"/><path fill="rgb(43.139648%, 51.368713%, 71.759033%)" d="M 486.101562 882.957031 L 486.101562 578.835938 L 1013.84375 578.835938 L 1013.84375 882.957031 L 486.101562 882.957031 " fill-opacity="1" fill-rule="nonzero"/><path fill="rgb(27.449036%, 37.649536%, 53.729248%)" d="M 498.664062 870.390625 L 498.664062 591.40625 L 1001.277344 591.40625 L 1001.277344 870.390625 L 498.664062 870.390625 " fill-opacity="1" fill-rule="nonzero"/><path fill="rgb(27.449036%, 74.508667%, 90.979004%)" d="M 756.882812 605.226562 L 743.0625 605.226562 L 743.0625 591.40625 L 756.882812 591.40625 L 756.882812 605.226562 " fill-opacity="1" fill-rule="nonzero"/><path fill="rgb(50.19989%, 83.918762%, 98.429871%)" d="M 764.421875 642.929688 L 735.519531 642.929688 L 735.519531 611.511719 C 735.519531 608.035156 738.328125 605.226562 741.804688 605.226562 L 758.140625 605.226562 C 761.613281 605.226562 764.421875 608.035156 764.421875 611.511719 L 764.421875 642.929688 " fill-opacity="1" fill-rule="nonzero"/><path fill="rgb(100%, 89.019775%, 32.159424%)" d="M 812.796875 870.390625 L 687.144531 870.390625 L 735.519531 642.929688 L 764.421875 642.929688 L 812.796875 870.390625 " fill-opacity="1" fill-rule="nonzero"/><path fill="rgb(27.449036%, 74.508667%, 90.979004%)" d="M 656.359375 605.226562 L 642.539062 605.226562 L 642.539062 591.40625 L 656.359375 591.40625 L 656.359375 605.226562 " fill-opacity="1" fill-rule="nonzero"/><path fill="rgb(50.19989%, 83.918762%, 98.429871%)" d="M 663.898438 642.929688 L 635 642.929688 L 635 611.511719 C 635 608.035156 637.808594 605.226562 641.28125 605.226562 L 657.617188 605.226562 C 661.089844 605.226562 663.898438 608.035156 663.898438 611.511719 L 663.898438 642.929688 " fill-opacity="1" fill-rule="nonzero"/><path fill="rgb(100%, 89.019775%, 32.159424%)" d="M 712.277344 870.390625 L 586.621094 870.390625 L 635 642.929688 L 663.898438 642.929688 L 712.277344 870.390625 " fill-opacity="1" fill-rule="nonzero"/><path fill="rgb(27.449036%, 74.508667%, 90.979004%)" d="M 843.582031 605.226562 L 857.40625 605.226562 L 857.40625 591.40625 L 843.582031 591.40625 L 843.582031 605.226562 " fill-opacity="1" fill-rule="nonzero"/><path fill="rgb(50.19989%, 83.918762%, 98.429871%)" d="M 836.042969 642.929688 L 864.945312 642.929688 L 864.945312 611.511719 C 864.945312 608.035156 862.136719 605.226562 858.660156 605.226562 L 842.328125 605.226562 C 838.851562 605.226562 836.042969 608.035156 836.042969 611.511719 L 836.042969 642.929688 " fill-opacity="1" fill-rule="nonzero"/><path fill="rgb(100%, 89.019775%, 32.159424%)" d="M 787.667969 870.390625 L 913.320312 870.390625 L 864.945312 642.929688 L 836.042969 642.929688 L 787.667969 870.390625 " fill-opacity="1" fill-rule="nonzero"/><path fill="rgb(100%, 69.799805%, 21.179199%)" d="M 687.144531 870.390625 L 712.277344 870.390625 L 699.710938 811.304688 Z M 687.144531 870.390625 " fill-opacity="1" fill-rule="nonzero"/><path fill="rgb(100%, 69.799805%, 21.179199%)" d="M 787.667969 870.390625 L 812.796875 870.390625 L 800.234375 811.304688 Z M 787.667969 870.390625 " fill-opacity="1" fill-rule="nonzero"/><path fill="rgb(100%, 69.018555%, 66.668701%)" d="M 536.363281 749.746094 L 498.664062 749.746094 L 498.664062 870.390625 L 573.636719 870.390625 C 573.636719 870.390625 580.78125 807.9375 536.363281 749.746094 " fill-opacity="1" fill-rule="nonzero"/><path fill="rgb(100%, 48.239136%, 48.239136%)" d="M 574.058594 860.335938 C 574.058594 866.71875 573.625 870.390625 573.625 870.390625 L 498.664062 870.390625 L 498.664062 860.335938 L 574.058594 860.335938 " fill-opacity="1" fill-rule="nonzero"/><path fill="rgb(100%, 69.018555%, 66.668701%)" d="M 583.570312 591.40625 L 498.664062 591.40625 L 498.664062 732.152344 L 536.363281 732.152344 C 592.621094 664.261719 583.570312 591.40625 583.570312 591.40625 " fill-opacity="1" fill-rule="nonzero"/><path fill="rgb(100%, 48.239136%, 48.239136%)" d="M 544.226562 722.101562 C 541.742188 725.4375 539.128906 728.816406 536.363281 732.152344 L 498.664062 732.152344 L 498.664062 722.101562 L 544.226562 722.101562 " fill-opacity="1" fill-rule="nonzero"/><path fill="rgb(100%, 89.019775%, 32.159424%)" d="M 536.363281 749.746094 L 498.664062 749.746094 L 498.664062 732.152344 L 536.363281 732.152344 L 536.363281 749.746094 " fill-opacity="1" fill-rule="nonzero"/><path fill="rgb(100%, 69.018555%, 66.668701%)" d="M 963.582031 749.746094 C 919.160156 807.9375 926.308594 870.390625 926.308594 870.390625 L 1001.277344 870.390625 L 1001.277344 749.746094 L 963.582031 749.746094 " fill-opacity="1" fill-rule="nonzero"/><path fill="rgb(100%, 48.239136%, 48.239136%)" d="M 925.886719 860.335938 C 925.886719 866.71875 926.316406 870.390625 926.316406 870.390625 L 1001.277344 870.390625 L 1001.277344 860.335938 L 925.886719 860.335938 " fill-opacity="1" fill-rule="nonzero"/><path fill="rgb(100%, 69.018555%, 66.668701%)" d="M 916.375 591.40625 C 916.375 591.40625 907.324219 664.261719 963.582031 732.152344 L 1001.277344 732.152344 L 1001.277344 591.40625 L 916.375 591.40625 " fill-opacity="1" fill-rule="nonzero"/><path fill="rgb(100%, 48.239136%, 48.239136%)" d="M 955.71875 722.101562 C 958.203125 725.4375 960.8125 728.816406 963.582031 732.152344 L 1001.277344 732.152344 L 1001.277344 722.101562 L 955.71875 722.101562 " fill-opacity="1" fill-rule="nonzero"/><path fill="rgb(100%, 89.019775%, 32.159424%)" d="M 963.582031 749.746094 L 1001.277344 749.746094 L 1001.277344 732.152344 L 963.582031 732.152344 L 963.582031 749.746094 " fill-opacity="1" fill-rule="nonzero"/><path fill="rgb(43.139648%, 51.368713%, 71.759033%)" d="M 850.433594 772.789062 C 859.664062 772.789062 867.222656 765.238281 867.222656 756 C 867.222656 746.773438 859.664062 739.210938 850.433594 739.210938 C 841.199219 739.210938 833.648438 746.773438 833.648438 756 C 833.648438 765.238281 841.199219 772.789062 850.433594 772.789062 " fill-opacity="1" fill-rule="nonzero"/><path fill="rgb(43.139648%, 51.368713%, 71.759033%)" d="M 867.222656 789.421875 L 889.230469 767.410156 C 891.214844 765.417969 891.214844 762.167969 889.230469 760.183594 C 887.238281 758.191406 883.988281 758.191406 881.996094 760.183594 L 867.222656 774.960938 L 867.222656 774.921875 L 833.648438 774.921875 L 833.648438 774.960938 L 818.863281 760.183594 C 816.871094 758.191406 813.621094 758.191406 811.628906 760.183594 C 809.648438 762.167969 809.648438 765.417969 811.628906 767.410156 L 833.648438 789.421875 L 833.648438 863.398438 C 833.648438 867.238281 836.789062 870.390625 840.636719 870.390625 C 844.484375 870.390625 847.636719 867.238281 847.636719 863.398438 L 847.636719 822.703125 L 851.0625 822.703125 L 875.449219 864.941406 C 877.363281 868.269531 881.660156 869.417969 885 867.503906 C 888.328125 865.578125 889.484375 861.277344 887.550781 857.941406 L 867.222656 822.703125 L 867.222656 789.421875 " fill-opacity="1" fill-rule="nonzero"/><path fill="rgb(43.139648%, 51.368713%, 71.759033%)" d="M 649.507812 772.789062 C 640.28125 772.789062 632.722656 765.238281 632.722656 756 C 632.722656 746.773438 640.28125 739.210938 649.507812 739.210938 C 658.746094 739.210938 666.292969 746.773438 666.292969 756 C 666.292969 765.238281 658.746094 772.789062 649.507812 772.789062 " fill-opacity="1" fill-rule="nonzero"/><path fill="rgb(43.139648%, 51.368713%, 71.759033%)" d="M 632.722656 789.421875 L 610.710938 767.410156 C 608.730469 765.417969 608.730469 762.167969 610.710938 760.183594 C 612.707031 758.191406 615.953125 758.191406 617.949219 760.183594 L 632.722656 774.960938 L 632.722656 774.921875 L 666.292969 774.921875 L 666.292969 774.960938 L 681.078125 760.183594 C 683.070312 758.191406 686.320312 758.191406 688.3125 760.183594 C 690.296875 762.167969 690.296875 765.417969 688.3125 767.410156 L 666.292969 789.421875 L 666.292969 863.398438 C 666.292969 867.238281 663.152344 870.390625 659.304688 870.390625 C 655.457031 870.390625 652.304688 867.238281 652.304688 863.398438 L 652.304688 822.703125 L 648.878906 822.703125 L 624.496094 864.941406 C 622.582031 868.269531 618.28125 869.417969 614.945312 867.503906 C 611.617188 865.578125 610.457031 861.277344 612.390625 857.941406 L 632.722656 822.703125 L 632.722656 789.421875 " fill-opacity="1" fill-rule="nonzero"/><path fill="rgb(43.139648%, 51.368713%, 71.759033%)" d="M 749.972656 772.789062 C 759.207031 772.789062 766.757812 765.238281 766.757812 756 C 766.757812 746.773438 759.207031 739.210938 749.972656 739.210938 C 740.734375 739.210938 733.183594 746.773438 733.183594 756 C 733.183594 765.238281 740.734375 772.789062 749.972656 772.789062 " fill-opacity="1" fill-rule="nonzero"/><path fill="rgb(43.139648%, 51.368713%, 71.759033%)" d="M 788.765625 760.183594 C 786.785156 758.191406 783.523438 758.191406 781.542969 760.183594 L 766.757812 774.960938 L 766.757812 774.921875 L 733.183594 774.921875 L 733.183594 774.960938 L 718.402344 760.183594 C 716.417969 758.191406 713.160156 758.191406 711.175781 760.183594 C 709.183594 762.167969 709.183594 765.417969 711.175781 767.410156 L 733.183594 789.421875 L 733.183594 863.398438 C 733.183594 867.238281 736.335938 870.390625 740.183594 870.390625 C 744.023438 870.390625 747.171875 867.238281 747.171875 863.398438 L 747.171875 822.703125 L 752.769531 822.703125 L 752.769531 863.398438 C 752.769531 867.238281 755.921875 870.390625 759.757812 870.390625 C 763.605469 870.390625 766.757812 867.238281 766.757812 863.398438 L 766.757812 789.421875 L 788.765625 767.410156 C 790.757812 765.417969 790.757812 762.167969 788.765625 760.183594 " fill-opacity="1" fill-rule="nonzero"/><path fill="rgb(100%, 89.019775%, 32.159424%)" d="M 996.25 578.835938 C 996.25 569.117188 1004.125 561.242188 1013.84375 561.242188 C 1023.5625 561.242188 1031.433594 569.117188 1031.433594 578.835938 C 1031.433594 588.558594 1023.5625 596.429688 1013.84375 596.429688 C 1004.125 596.429688 996.25 588.558594 996.25 578.835938 " fill-opacity="1" fill-rule="nonzero"/></svg>