<svg xmlns="http://www.w3.org/2000/svg" xmlns:xlink="http://www.w3.org/1999/xlink" width="2000" zoomAndPan="magnify" viewBox="0 0 1500 1499.999933" height="2000" preserveAspectRatio="xMidYMid meet" version="1.0"><defs><clipPath id="id1"><path d="M 130 1257 L 1370 1257 L 1370 1384.398438 L 130 1384.398438 Z M 130 1257 " clip-rule="nonzero"/></clipPath><clipPath id="id2"><path d="M 252 397.398438 L 685 397.398438 L 685 684 L 252 684 Z M 252 397.398438 " clip-rule="nonzero"/></clipPath><clipPath id="id3"><path d="M 252 397.398438 L 685 397.398438 L 685 427 L 252 427 Z M 252 397.398438 " clip-rule="nonzero"/></clipPath><clipPath id="id4"><path d="M 815 397.398438 L 1248 397.398438 L 1248 684 L 815 684 Z M 815 397.398438 " clip-rule="nonzero"/></clipPath><clipPath id="id5"><path d="M 815 397.398438 L 1247 397.398438 L 1247 427 L 815 427 Z M 815 397.398438 " clip-rule="nonzero"/></clipPath></defs><path fill="rgb(82.749939%, 82.348633%, 82.348633%)" d="M 295.34375 1324.839844 C 250.511719 1324.839844 214.167969 1288.496094 214.167969 1243.664062 L 214.167969 642 C 214.167969 597.164062 250.511719 560.824219 295.34375 560.824219 L 1204.765625 560.824219 C 1249.597656 560.824219 1285.953125 597.164062 1285.953125 642 L 1285.953125 1243.664062 C 1285.953125 1288.496094 1249.597656 1324.839844 1204.765625 1324.839844 L 295.34375 1324.839844 " fill-opacity="1" fill-rule="nonzero"/><path fill="rgb(65.879822%, 89.019775%, 98.039246%)" d="M 323.523438 1317.621094 C 281.476562 1317.621094 247.386719 1283.527344 247.386719 1241.460938 L 247.386719 677.109375 C 247.386719 635.054688 281.476562 600.957031 323.523438 600.957031 L 1176.578125 600.957031 C 1218.636719 600.957031 1252.730469 635.054688 1252.730469 677.109375 L 1252.730469 1241.460938 C 1252.730469 1283.527344 1218.636719 1317.621094 1176.578125 1317.621094 L 323.523438 1317.621094 " fill-opacity="1" fill-rule="nonzero"/><path fill="rgb(70.979309%, 90.589905%, 98.039246%)" d="M 1113.828125 679.953125 L 386.273438 679.953125 C 360.792969 679.953125 340.050781 700.699219 340.050781 726.179688 L 340.050781 1179.699219 C 340.050781 1205.195312 360.792969 1225.921875 386.273438 1225.921875 L 1113.828125 1225.921875 C 1139.332031 1225.921875 1160.066406 1205.195312 1160.066406 1179.699219 L 1160.066406 726.179688 C 1160.066406 700.699219 1139.332031 679.953125 1113.828125 679.953125 " fill-opacity="1" fill-rule="nonzero"/><path fill="rgb(93.728638%, 40.388489%, 39.219666%)" d="M 953.445312 1225.921875 C 954.605469 1203.761719 955.226562 1182.84375 955.558594 1163.535156 C 956.234375 1122.933594 955.691406 1089.320312 955.121094 1065.761719 C 954.8125 1053.96875 954.496094 1044.707031 954.246094 1038.347656 C 953.96875 1031.878906 953.820312 1028.4375 953.820312 1028.4375 L 917.464844 1026.816406 C 917.464844 1026.816406 917.117188 1034.257812 917.148438 1040.167969 C 917.160156 1046.179688 917.132812 1055.058594 917 1066.386719 C 916.714844 1089.046875 916.015625 1121.488281 913.941406 1160.035156 C 912.8125 1180.464844 911.304688 1202.753906 909.089844 1225.921875 L 953.445312 1225.921875 " fill-opacity="1" fill-rule="nonzero"/><path fill="rgb(93.728638%, 40.388489%, 39.219666%)" d="M 911.148438 1017.519531 C 910.449219 1016.226562 909.722656 1014.9375 908.949219 1013.671875 C 907.070312 1010.632812 905.03125 1007.738281 902.65625 1005.050781 C 898.480469 1000.335938 894.527344 995.390625 894.140625 988.800781 C 894.0625 987.359375 894.007812 984.304688 895.984375 984.015625 C 897.945312 983.730469 900.09375 986.261719 901.351562 987.433594 C 902.765625 988.75 904.972656 991.363281 907.175781 991.070312 C 909.875 990.710938 910.554688 986.085938 910.964844 984.0625 C 912.902344 974.316406 912.15625 963.910156 915.175781 954.386719 C 916.058594 951.625 917.472656 949.132812 919.855469 947.402344 C 922.074219 945.777344 924.800781 944.78125 927.460938 944.148438 C 930.605469 943.375 933.945312 943.214844 937.082031 944.164062 C 941.078125 945.382812 944.285156 948.269531 946.769531 951.539062 C 953.578125 960.5 956.859375 972.5 958.132812 983.53125 C 958.53125 986.945312 958.347656 990.589844 958.273438 994.035156 C 958.207031 997.648438 957.949219 1001.261719 957.53125 1004.847656 C 956.726562 1011.746094 955.410156 1018.59375 954.21875 1025.433594 C 953.589844 1029.070312 953.371094 1033.632812 951.082031 1036.714844 C 948.675781 1039.957031 944.152344 1041.714844 940.304688 1042.300781 C 933.929688 1043.25 928.375 1040.375 923.34375 1036.753906 C 922.75 1036.339844 921.773438 1035.855469 921.320312 1035.28125 C 920.570312 1034.308594 919.976562 1033.21875 919.261719 1032.210938 C 918.671875 1031.394531 917.933594 1030.710938 917.324219 1029.894531 C 915.570312 1027.597656 914.699219 1024.511719 913.414062 1021.929688 C 912.679688 1020.457031 911.929688 1018.992188 911.148438 1017.519531 " fill-opacity="1" fill-rule="nonzero"/><path fill="rgb(8.628845%, 11.369324%, 22.749329%)" d="M 586.746094 1226.457031 L 898.769531 1226.457031 C 898.164062 1217.589844 896.5 1208.992188 893.890625 1201.722656 C 885.910156 1181.96875 872.1875 1163.492188 861.265625 1146.269531 C 848.023438 1125.816406 849.597656 1106.738281 853.816406 1083.335938 C 862.246094 1041.222656 886.992188 1003.890625 872.035156 960.414062 C 864.722656 939.578125 854.964844 928.648438 856.046875 906.871094 C 856.8125 887.984375 858.382812 864.238281 846.976562 848.992188 C 844.421875 845.433594 840.542969 842.175781 838.535156 839.980469 C 838.214844 815.941406 833.28125 794.792969 812.339844 782.742188 C 792.207031 771.3125 761.558594 767.832031 747.476562 793.429688 C 731.953125 779.085938 699.050781 791.089844 683.265625 798.347656 C 657.277344 810.679688 640.558594 835.925781 634.882812 865.265625 C 629.707031 892.621094 632.59375 921.941406 630.875 949.46875 C 629.320312 977.894531 621.171875 1003.101562 607.738281 1027.617188 C 584.65625 1073.933594 549.882812 1117.234375 563.074219 1174.203125 C 567.828125 1194.164062 576.117188 1211.347656 586.746094 1226.457031 " fill-opacity="1" fill-rule="nonzero"/><path fill="rgb(8.628845%, 11.369324%, 22.749329%)" d="M 837.71875 838.988281 L 837.21875 838.046875 L 837.71875 838.988281 " fill-opacity="1" fill-rule="nonzero"/><path fill="rgb(93.728638%, 40.388489%, 39.219666%)" d="M 783.726562 1209.53125 C 785.179688 1214.917969 787.195312 1220.460938 789.300781 1226.457031 L 851.050781 1226.457031 C 849.570312 1221.910156 848.203125 1217.433594 846.941406 1213.246094 C 845.332031 1206.367188 843.453125 1200.015625 842.53125 1194.546875 C 841.453125 1188.945312 840.425781 1184.644531 839.75 1179.863281 C 838.3125 1170.925781 837.496094 1165.8125 837.496094 1165.8125 L 775.410156 1178.691406 C 775.410156 1178.691406 776.683594 1183.710938 778.90625 1192.492188 C 779.855469 1196.628906 781.804688 1202.898438 783.726562 1209.53125 " fill-opacity="1" fill-rule="nonzero"/><path fill="rgb(100%, 100%, 100%)" d="M 795.035156 1037.171875 C 795.035156 1037.171875 834.304688 1100.457031 846.859375 1178.609375 C 846.859375 1178.609375 817.96875 1208.992188 781.179688 1218.148438 C 781.179688 1218.148438 692.746094 1060.363281 795.035156 1037.171875 " fill-opacity="1" fill-rule="nonzero"/><path fill="rgb(94.898987%, 94.898987%, 94.898987%)" d="M 814.097656 1226.457031 C 814.78125 1222.445312 815.546875 1218.566406 816.4375 1214.953125 C 816.4375 1214.953125 866.007812 1175.550781 831.433594 1123.683594 C 831.433594 1123.683594 812.226562 1102.5 807.414062 1073.679688 C 802.613281 1044.863281 799.730469 1032.371094 774.761719 1028.523438 C 749.773438 1024.6875 654.953125 997.890625 644.160156 1111.148438 C 638.292969 1172.664062 657.996094 1192.140625 673.6875 1226.457031 L 814.097656 1226.457031 " fill-opacity="1" fill-rule="nonzero"/><path fill="rgb(93.728638%, 40.388489%, 39.219666%)" d="M 772.828125 1007.039062 L 772.828125 957.90625 L 711.246094 925.242188 L 711.246094 1007.039062 L 772.828125 1007.039062 " fill-opacity="1" fill-rule="nonzero"/><path fill="rgb(69.40918%, 30.198669%, 67.83905%)" d="M 772.828125 1028.207031 L 772.828125 1006.5625 C 752.273438 1007.820312 730.613281 1004.621094 711.246094 998.246094 L 711.246094 1024.476562 L 711.253906 1024.5 C 710.835938 1024.574219 720.003906 1046.578125 724.453125 1056.324219 C 730.789062 1070.246094 738.222656 1083.363281 745.835938 1096.589844 C 756.347656 1114.816406 766.15625 1135.296875 773.347656 1155.699219 C 773.972656 1134.839844 773.621094 1113.953125 774.203125 1093.0625 C 774.535156 1080.949219 773.019531 1028.238281 772.828125 1028.207031 " fill-opacity="1" fill-rule="nonzero"/><path fill="rgb(8.239746%, 10.198975%, 21.179199%)" d="M 772.828125 1003.175781 L 772.828125 957.90625 L 711.246094 925.242188 L 711.246094 966.363281 C 726.527344 985.8125 748.976562 996.789062 772.828125 1003.175781 " fill-opacity="1" fill-rule="nonzero"/><path fill="rgb(8.628845%, 11.369324%, 22.749329%)" d="M 701.890625 1193.222656 C 722.324219 1214.183594 750.140625 1215.160156 775.085938 1201.546875 C 779.765625 1198.992188 775.601562 1191.859375 770.925781 1194.414062 C 749.214844 1206.277344 725.5625 1205.679688 707.726562 1187.382812 C 703.996094 1183.566406 698.167969 1189.421875 701.890625 1193.222656 " fill-opacity="1" fill-rule="nonzero"/><path fill="rgb(8.628845%, 11.369324%, 22.749329%)" d="M 793.460938 1201.023438 C 794.753906 1203.8125 798.050781 1205.0625 800.730469 1206.035156 C 804.425781 1207.367188 808.394531 1208.042969 812.265625 1208.691406 C 817.464844 1209.5625 819.695312 1201.617188 814.457031 1200.734375 C 811.667969 1200.269531 808.894531 1199.726562 806.148438 1199.035156 C 804.691406 1198.667969 801.046875 1197.84375 800.589844 1196.863281 C 798.359375 1192.023438 791.242188 1196.238281 793.460938 1201.023438 " fill-opacity="1" fill-rule="nonzero"/><path fill="rgb(93.728638%, 40.388489%, 39.219666%)" d="M 634.367188 1217.15625 C 634.5625 1219.6875 634.761719 1222.253906 634.960938 1224.890625 C 635.011719 1225.40625 635.109375 1225.9375 635.167969 1226.457031 L 693.5 1226.457031 L 693.453125 1225.824219 C 693.339844 1223.949219 693.046875 1222.183594 693.0625 1220.328125 C 693.078125 1218.464844 693.109375 1216.632812 693.128906 1214.859375 C 693.128906 1213.085938 693.136719 1211.339844 693.148438 1209.632812 C 693.226562 1207.910156 693.457031 1206.1875 693.585938 1204.53125 C 693.933594 1201.207031 694.097656 1198 694.496094 1195.128906 C 694.96875 1192.316406 695.414062 1189.695312 695.828125 1187.265625 C 696.273438 1184.761719 696.417969 1182.867188 697.117188 1180.1875 C 699.386719 1170.347656 700.691406 1164.742188 700.691406 1164.742188 L 638.386719 1152.996094 C 638.386719 1152.996094 637.535156 1158.695312 636.046875 1168.667969 C 635.648438 1170.910156 635.382812 1174.601562 635.046875 1178.117188 C 634.726562 1181.71875 634.390625 1185.617188 634.042969 1189.777344 C 633.816406 1193.890625 633.890625 1198.171875 633.820312 1202.722656 C 633.828125 1204.984375 633.75 1207.292969 633.835938 1209.699219 C 634.007812 1212.121094 634.191406 1214.609375 634.367188 1217.15625 " fill-opacity="1" fill-rule="nonzero"/><path fill="rgb(100%, 100%, 100%)" d="M 629.699219 1189.070312 L 702.871094 1204.253906 C 702.871094 1204.253906 749.382812 1067.238281 701.25 1046.511719 C 653.097656 1025.808594 637.414062 1102.417969 629.699219 1189.070312 " fill-opacity="1" fill-rule="nonzero"/><path fill="rgb(93.728638%, 40.388489%, 39.219666%)" d="M 694.695312 858.917969 C 693.109375 864.636719 692.253906 870.636719 692.253906 876.847656 L 692.253906 918.925781 C 692.253906 956.011719 722.292969 986.058594 759.363281 986.058594 C 796.433594 986.058594 826.488281 956.011719 826.488281 918.925781 L 826.488281 876.847656 C 826.488281 870.636719 825.632812 864.636719 824.042969 858.917969 C 824.042969 858.917969 804.25 779.320312 721.941406 815.011719 C 707.980469 821.074219 694.695312 858.917969 694.695312 858.917969 " fill-opacity="1" fill-rule="nonzero"/><path fill="rgb(8.628845%, 11.369324%, 22.749329%)" d="M 744.273438 898.503906 C 744.273438 902.734375 746.414062 906.164062 749.050781 906.164062 C 751.691406 906.164062 753.828125 902.734375 753.828125 898.503906 C 753.828125 894.285156 751.691406 890.847656 749.050781 890.847656 C 746.414062 890.847656 744.273438 894.285156 744.273438 898.503906 " fill-opacity="1" fill-rule="nonzero"/><path fill="rgb(8.628845%, 11.369324%, 22.749329%)" d="M 799.664062 898.503906 C 799.664062 902.734375 801.796875 906.164062 804.441406 906.164062 C 807.074219 906.164062 809.210938 902.734375 809.210938 898.503906 C 809.210938 894.285156 807.074219 890.847656 804.441406 890.847656 C 801.796875 890.847656 799.664062 894.285156 799.664062 898.503906 " fill-opacity="1" fill-rule="nonzero"/><path fill="rgb(8.628845%, 11.369324%, 22.749329%)" d="M 776.167969 923.476562 L 786.535156 923.476562 C 787.304688 923.476562 787.917969 922.871094 787.917969 922.105469 C 787.917969 917.511719 782.902344 898.515625 782.683594 897.707031 C 782.492188 896.96875 781.746094 896.550781 781.011719 896.734375 C 780.277344 896.925781 779.839844 897.683594 780.03125 898.425781 C 781.320312 903.277344 784.449219 915.71875 785.058594 920.75 L 776.167969 920.75 C 775.425781 920.75 774.804688 921.347656 774.804688 922.105469 C 774.804688 922.871094 775.425781 923.476562 776.167969 923.476562 " fill-opacity="1" fill-rule="nonzero"/><path fill="rgb(8.628845%, 11.369324%, 22.749329%)" d="M 764.480469 874.058594 C 764.390625 872.59375 764.28125 869.996094 762.527344 869.324219 C 759.363281 868.121094 755.574219 867.730469 752.453125 868.554688 C 748.675781 869.546875 744.996094 870.878906 741.46875 872.523438 C 739.394531 873.5 737.296875 874.589844 735.382812 875.824219 C 733.777344 876.855469 731.929688 878.285156 732.0625 880.425781 C 732.121094 881.46875 732.34375 883.308594 733.734375 883.265625 C 734.824219 883.234375 735.789062 882.402344 736.757812 881.984375 C 739.054688 880.984375 741.476562 880.277344 743.921875 879.785156 C 746.429688 879.269531 748.820312 879.011719 751.378906 879.167969 C 753.8125 879.34375 756.132812 879.941406 758.488281 880.527344 C 760.046875 880.933594 761.785156 881.484375 763.09375 880.175781 C 764.582031 878.695312 764.605469 875.996094 764.480469 874.058594 " fill-opacity="1" fill-rule="nonzero"/><path fill="rgb(8.628845%, 11.369324%, 22.749329%)" d="M 788.996094 874.058594 C 789.09375 872.59375 789.210938 869.996094 790.957031 869.324219 C 794.113281 868.121094 797.90625 867.730469 801.039062 868.554688 C 804.808594 869.546875 808.488281 870.878906 812.007812 872.523438 C 814.078125 873.5 816.179688 874.589844 818.101562 875.824219 C 819.707031 876.855469 821.554688 878.285156 821.414062 880.425781 C 821.355469 881.46875 821.136719 883.308594 819.753906 883.265625 C 818.65625 883.234375 817.683594 882.402344 816.71875 881.984375 C 814.441406 880.984375 811.996094 880.277344 809.558594 879.785156 C 807.046875 879.269531 804.660156 879.011719 802.09375 879.167969 C 799.664062 879.34375 797.351562 879.941406 794.992188 880.527344 C 793.429688 880.933594 791.691406 881.484375 790.382812 880.175781 C 788.894531 878.695312 788.882812 875.996094 788.996094 874.058594 " fill-opacity="1" fill-rule="nonzero"/><path fill="rgb(8.628845%, 11.369324%, 22.749329%)" d="M 815.777344 899.230469 L 816.519531 899.011719 C 817.152344 898.597656 817.351562 897.75 816.9375 897.109375 C 809.046875 884.765625 795.617188 891.164062 795.476562 891.222656 C 794.796875 891.5625 794.519531 892.390625 794.84375 893.054688 C 795.179688 893.734375 795.996094 894.027344 796.683594 893.6875 C 797.144531 893.480469 808.0625 888.324219 814.621094 898.589844 C 814.878906 898.996094 815.328125 899.230469 815.777344 899.230469 " fill-opacity="1" fill-rule="nonzero"/><path fill="rgb(8.628845%, 11.369324%, 22.749329%)" d="M 737.707031 899.230469 C 738.15625 899.230469 738.601562 898.996094 738.863281 898.589844 C 745.421875 888.324219 756.34375 893.46875 756.800781 893.6875 C 757.480469 894.027344 758.304688 893.734375 758.632812 893.054688 C 758.972656 892.390625 758.691406 891.5625 758.007812 891.222656 C 757.875 891.164062 744.449219 884.765625 736.546875 897.109375 C 736.140625 897.75 736.324219 898.597656 736.972656 899.011719 L 737.707031 899.230469 " fill-opacity="1" fill-rule="nonzero"/><path fill="rgb(8.628845%, 11.369324%, 22.749329%)" d="M 751.011719 928.058594 C 751.5625 928.257812 751.921875 928.78125 751.902344 929.390625 C 751.664062 934.125 755.660156 936.480469 756.460938 936.898438 C 759.453125 938.476562 763.683594 938.679688 766.011719 936.050781 C 766.511719 935.488281 767.378906 935.429688 767.953125 935.941406 C 768.519531 936.4375 768.566406 937.304688 768.070312 937.878906 C 764.648438 941.742188 758.988281 941.328125 755.183594 939.328125 C 752.105469 937.71875 748.910156 934.207031 749.15625 929.261719 C 749.199219 928.503906 749.832031 927.921875 750.589844 927.960938 L 751.011719 928.058594 " fill-opacity="1" fill-rule="nonzero"/><path fill="rgb(94.898987%, 51.368713%, 48.239136%)" d="M 793.894531 918.574219 C 793.894531 923.019531 799.988281 926.625 807.488281 926.625 C 814.988281 926.625 821.078125 923.019531 821.078125 918.574219 C 821.078125 914.128906 814.988281 910.511719 807.488281 910.511719 C 799.988281 910.511719 793.894531 914.128906 793.894531 918.574219 " fill-opacity="1" fill-rule="nonzero"/><path fill="rgb(94.898987%, 51.368713%, 48.239136%)" d="M 729.640625 918.574219 C 729.640625 923.019531 735.714844 926.625 743.214844 926.625 C 750.722656 926.625 756.808594 923.019531 756.808594 918.574219 C 756.808594 914.128906 750.722656 910.511719 743.214844 910.511719 C 735.714844 910.511719 729.640625 914.128906 729.640625 918.574219 " fill-opacity="1" fill-rule="nonzero"/><path fill="rgb(8.628845%, 11.369324%, 22.749329%)" d="M 826.488281 884.886719 C 826.488281 884.886719 814.480469 871.222656 808.363281 859.699219 C 802.167969 848.019531 796.101562 833.261719 800.328125 814.179688 C 800.328125 814.179688 807.386719 812.660156 818.375 824.71875 C 829.351562 836.808594 836.238281 861.421875 826.488281 884.886719 " fill-opacity="1" fill-rule="nonzero"/><path fill="rgb(8.628845%, 11.369324%, 22.749329%)" d="M 803.910156 840.054688 C 803.910156 840.054688 770.855469 879.433594 733.070312 883.648438 C 695.277344 887.851562 694.742188 912.398438 694.742188 912.398438 C 694.742188 912.398438 679.625 861.980469 702.40625 827.707031 C 728.492188 788.433594 801.800781 793.414062 808.363281 806.890625 L 803.910156 840.054688 " fill-opacity="1" fill-rule="nonzero"/><path fill="rgb(93.728638%, 40.388489%, 39.219666%)" d="M 690.472656 885.054688 C 681.003906 886.503906 675 896.082031 680.929688 909.535156 C 685.949219 920.921875 687.097656 931.609375 696.5625 930.152344 C 706.019531 928.707031 712.324219 917.441406 710.644531 904.972656 C 708.964844 892.511719 699.933594 883.597656 690.472656 885.054688 " fill-opacity="1" fill-rule="nonzero"/><path fill="rgb(94.898987%, 94.898987%, 94.898987%)" d="M 692.816406 928.289062 C 692.816406 930.578125 690.957031 932.4375 688.667969 932.4375 C 686.375 932.4375 684.515625 930.578125 684.515625 928.289062 C 684.515625 925.992188 686.375 924.117188 688.667969 924.117188 C 690.957031 924.117188 692.816406 925.992188 692.816406 928.289062 " fill-opacity="1" fill-rule="nonzero"/><path fill="rgb(69.40918%, 14.509583%, 59.999084%)" d="M 772.828125 1003.175781 C 748.019531 1007.910156 714.507812 996.425781 711.160156 996.117188 C 709.378906 995.96875 709.945312 1003.058594 711.246094 1003.984375 C 715.007812 1006.644531 750.015625 1017.699219 772.429688 1012.15625 C 774.925781 1011.550781 775.25 1002.71875 772.828125 1003.175781 " fill-opacity="1" fill-rule="nonzero"/><path fill="rgb(100%, 100%, 100%)" d="M 510.414062 733.0625 C 502.492188 733.0625 496.0625 726.644531 496.0625 718.71875 C 496.0625 710.789062 502.492188 704.359375 510.414062 704.359375 C 518.34375 704.359375 524.761719 710.789062 524.761719 718.71875 C 524.761719 726.644531 518.34375 733.0625 510.414062 733.0625 Z M 454.007812 733.0625 C 446.085938 733.0625 439.660156 726.644531 439.660156 718.71875 C 439.660156 710.789062 446.085938 704.359375 454.007812 704.359375 C 461.925781 704.359375 468.359375 710.789062 468.359375 718.71875 C 468.359375 726.644531 461.925781 733.0625 454.007812 733.0625 Z M 397.605469 733.0625 C 389.671875 733.0625 383.25 726.644531 383.25 718.71875 C 383.25 710.789062 389.671875 704.359375 397.605469 704.359375 C 405.523438 704.359375 411.949219 710.789062 411.949219 718.71875 C 411.949219 726.644531 405.523438 733.0625 397.605469 733.0625 Z M 1116.136719 680.820312 L 383.984375 680.820312 C 359.722656 680.820312 340.054688 700.5 340.054688 724.765625 L 340.054688 756.605469 L 1160.058594 756.605469 L 1160.058594 724.765625 C 1160.058594 700.5 1140.390625 680.820312 1116.136719 680.820312 " fill-opacity="1" fill-rule="nonzero"/><path fill="rgb(100%, 100%, 100%)" d="M 940.960938 1117.292969 L 934.210938 1121.335938 L 934.210938 1114.796875 C 934.210938 1109.941406 930.242188 1105.96875 925.398438 1105.96875 L 892.078125 1105.96875 C 887.234375 1105.96875 883.261719 1109.941406 883.261719 1114.796875 L 883.261719 1141.492188 C 883.261719 1146.335938 887.234375 1150.3125 892.078125 1150.3125 L 925.398438 1150.3125 C 930.242188 1150.3125 934.210938 1146.335938 934.210938 1141.492188 L 934.210938 1134.957031 L 940.960938 1139 C 944.582031 1142.230469 947.546875 1140.898438 947.546875 1136.042969 L 947.546875 1120.238281 C 947.546875 1115.382812 944.582031 1114.058594 940.960938 1117.292969 " fill-opacity="1" fill-rule="nonzero"/><path fill="rgb(100%, 100%, 100%)" d="M 915.398438 1083.792969 C 890.960938 1083.792969 871.070312 1103.691406 871.070312 1128.136719 C 871.070312 1152.59375 890.960938 1172.488281 915.398438 1172.488281 C 939.847656 1172.488281 959.738281 1152.59375 959.738281 1128.136719 C 959.738281 1103.691406 939.847656 1083.792969 915.398438 1083.792969 Z M 915.398438 1175.605469 C 889.25 1175.605469 867.957031 1154.308594 867.957031 1128.136719 C 867.957031 1101.972656 889.25 1080.6875 915.398438 1080.6875 C 941.558594 1080.6875 962.84375 1101.972656 962.84375 1128.136719 C 962.84375 1154.308594 941.558594 1175.605469 915.398438 1175.605469 " fill-opacity="1" fill-rule="nonzero"/><path fill="rgb(100%, 100%, 100%)" d="M 1066.542969 1141.746094 C 1073.359375 1141.746094 1078.886719 1136.238281 1078.886719 1129.421875 L 1078.886719 1107.292969 C 1078.886719 1100.484375 1073.359375 1094.949219 1066.542969 1094.949219 C 1059.734375 1094.949219 1054.207031 1100.484375 1054.207031 1107.292969 L 1054.207031 1129.421875 C 1054.207031 1136.238281 1059.734375 1141.746094 1066.542969 1141.746094 " fill-opacity="1" fill-rule="nonzero"/><path fill="rgb(100%, 100%, 100%)" d="M 1082.699219 1118.734375 C 1081.992188 1118.734375 1081.425781 1119.304688 1081.425781 1120.003906 L 1081.425781 1131.359375 C 1081.425781 1139.566406 1074.753906 1146.234375 1066.542969 1146.234375 C 1058.347656 1146.234375 1051.679688 1139.566406 1051.679688 1131.359375 L 1051.679688 1120.003906 C 1051.679688 1119.304688 1051.105469 1118.734375 1050.386719 1118.734375 C 1049.699219 1118.734375 1049.121094 1119.304688 1049.121094 1120.003906 L 1049.121094 1131.359375 C 1049.121094 1140.542969 1056.273438 1147.992188 1065.273438 1148.664062 L 1065.273438 1160.0625 C 1065.273438 1160.761719 1065.84375 1161.335938 1066.542969 1161.335938 C 1067.25 1161.335938 1067.828125 1160.761719 1067.828125 1160.0625 L 1067.828125 1148.664062 C 1076.832031 1147.992188 1083.984375 1140.542969 1083.984375 1131.359375 L 1083.984375 1120.003906 C 1083.984375 1119.304688 1083.40625 1118.734375 1082.699219 1118.734375 " fill-opacity="1" fill-rule="nonzero"/><path fill="rgb(100%, 100%, 100%)" d="M 1066.542969 1083.792969 C 1042.105469 1083.792969 1022.203125 1103.691406 1022.203125 1128.136719 C 1022.203125 1152.59375 1042.105469 1172.488281 1066.542969 1172.488281 C 1091 1172.488281 1110.882812 1152.59375 1110.882812 1128.136719 C 1110.882812 1103.691406 1091 1083.792969 1066.542969 1083.792969 Z M 1066.542969 1175.605469 C 1040.382812 1175.605469 1019.101562 1154.308594 1019.101562 1128.136719 C 1019.101562 1101.972656 1040.382812 1080.6875 1066.542969 1080.6875 C 1092.710938 1080.6875 1114.003906 1101.972656 1114.003906 1128.136719 C 1114.003906 1154.308594 1092.710938 1175.605469 1066.542969 1175.605469 " fill-opacity="1" fill-rule="nonzero"/><path fill="rgb(100%, 100%, 100%)" d="M 383.984375 683.410156 C 361.1875 683.410156 342.636719 701.957031 342.636719 724.765625 L 342.636719 1181.121094 C 342.636719 1203.929688 361.1875 1222.484375 383.984375 1222.484375 L 1116.136719 1222.484375 C 1138.933594 1222.484375 1157.476562 1203.929688 1157.476562 1181.121094 L 1157.476562 724.765625 C 1157.476562 701.957031 1138.933594 683.410156 1116.136719 683.410156 Z M 1116.136719 1227.636719 L 383.984375 1227.636719 C 358.339844 1227.636719 337.472656 1206.777344 337.472656 1181.121094 L 337.472656 724.765625 C 337.472656 699.109375 358.339844 678.238281 383.984375 678.238281 L 1116.136719 678.238281 C 1141.769531 678.238281 1162.644531 699.109375 1162.644531 724.765625 L 1162.644531 1181.121094 C 1162.644531 1206.777344 1141.769531 1227.636719 1116.136719 1227.636719 " fill-opacity="1" fill-rule="nonzero"/><g clip-path="url(#id1)"><path fill="rgb(82.749939%, 82.348633%, 82.348633%)" d="M 944.164062 1257.410156 L 909.546875 1286.839844 L 590.578125 1286.839844 L 555.949219 1257.410156 L 130.636719 1257.410156 L 130.636719 1290.550781 C 130.636719 1342.367188 172.640625 1384.386719 224.46875 1384.386719 L 1275.660156 1384.386719 C 1327.472656 1384.386719 1369.472656 1342.367188 1369.472656 1290.550781 L 1369.472656 1257.410156 L 944.164062 1257.410156 " fill-opacity="1" fill-rule="nonzero"/></g><path fill="rgb(71.759033%, 71.759033%, 71.759033%)" d="M 763.480469 583.953125 C 763.480469 591.367188 757.472656 597.371094 750.058594 597.371094 C 742.652344 597.371094 736.632812 591.367188 736.632812 583.953125 C 736.632812 576.535156 742.652344 570.527344 750.058594 570.527344 C 757.472656 570.527344 763.480469 576.535156 763.480469 583.953125 " fill-opacity="1" fill-rule="nonzero"/><g clip-path="url(#id2)"><path fill="rgb(95.689392%, 43.919373%, 57.649231%)" d="M 252.988281 397.421875 L 252.988281 683.363281 L 684.375 683.363281 L 684.375 397.421875 L 252.988281 397.421875 " fill-opacity="1" fill-rule="nonzero"/></g><path fill="rgb(95.289612%, 38.038635%, 45.098877%)" d="M 631.652344 615.632812 C 631.652344 639.839844 626.394531 662.78125 616.917969 683.441406 L 320.433594 683.441406 C 310.957031 662.78125 305.714844 639.839844 305.714844 615.632812 C 305.714844 525.609375 378.667969 452.652344 468.679688 452.652344 C 558.691406 452.652344 631.652344 525.609375 631.652344 615.632812 " fill-opacity="1" fill-rule="nonzero"/><path fill="rgb(8.628845%, 11.369324%, 22.749329%)" d="M 472.855469 430.429688 C 454.105469 427.847656 429.019531 437.90625 422.953125 455.40625 C 419.296875 465.984375 412.734375 473.472656 406.4375 482.59375 C 400.800781 490.78125 401.105469 497.570312 399.84375 506.820312 C 398.628906 515.777344 392.691406 523.101562 390 531.617188 C 386.886719 541.472656 387.773438 552.027344 387.386719 562.21875 C 386.554688 584.101562 391.355469 603.929688 409.632812 618.664062 C 432.960938 637.484375 470.820312 642.761719 499.644531 635.445312 C 510.691406 632.640625 527.179688 629.84375 535.460938 621.527344 C 541.648438 615.328125 535.882812 609.074219 537.21875 601.839844 C 538.800781 593.34375 547.273438 588.082031 545.847656 578.707031 C 544.335938 568.660156 534.972656 561.332031 535.867188 550.628906 C 536.542969 542.511719 543.171875 535.988281 538.6875 527.898438 C 534.992188 521.210938 526.988281 517.089844 527.863281 508.585938 C 528.59375 501.574219 531.53125 499.070312 525.929688 493.035156 C 519.902344 486.550781 515.125 482.070312 513.765625 473.023438 C 510.957031 454.367188 500.3125 434.21875 472.855469 430.429688 " fill-opacity="1" fill-rule="nonzero"/><path fill="rgb(94.898987%, 94.898987%, 94.898987%)" d="M 570.613281 683.441406 C 573.753906 667.585938 571.699219 649.613281 569.066406 635.785156 C 563.390625 605.835938 541.832031 580.136719 517.828125 571.988281 L 507.839844 683.441406 Z M 368.363281 683.441406 C 363.046875 666.179688 365.300781 645.042969 368.289062 629.285156 C 373.972656 599.335938 395.527344 573.636719 419.535156 565.488281 L 429.75 679.539062 C 429.222656 680.785156 428.660156 682.09375 428.082031 683.441406 L 368.363281 683.441406 " fill-opacity="1" fill-rule="nonzero"/><path fill="rgb(10.198975%, 19.219971%, 34.118652%)" d="M 387.109375 683.441406 L 405.257812 683.441406 C 402.671875 672.15625 403.265625 660.597656 399.003906 649.472656 C 397.703125 646.074219 395.855469 642.910156 393.808594 639.648438 C 393.019531 638.390625 391.304688 636.570312 390.542969 634.949219 C 384.585938 642.445312 384.269531 652.160156 383.949219 660.160156 C 383.644531 667.976562 384.398438 675.8125 387.109375 683.441406 " fill-opacity="1" fill-rule="nonzero"/><path fill="rgb(10.198975%, 19.219971%, 34.118652%)" d="M 545.058594 646.433594 C 543.714844 643.695312 541.832031 639.257812 537.082031 637.78125 C 533.957031 653.085938 528.015625 668.148438 524.953125 683.441406 L 548.1875 683.441406 C 549.300781 674.269531 550.664062 665.0625 548.355469 655.921875 C 547.550781 652.734375 546.597656 649.53125 545.058594 646.433594 " fill-opacity="1" fill-rule="nonzero"/><path fill="rgb(94.509888%, 29.019165%, 67.83905%)" d="M 511.371094 570.394531 C 506.625 569.59375 501.433594 569.449219 495.808594 569.816406 C 473.742188 571.230469 453.566406 564.40625 431.847656 563.792969 C 429.199219 563.71875 426.707031 563.90625 424.335938 564.316406 L 424.335938 683.441406 L 511.371094 683.441406 L 511.371094 570.394531 " fill-opacity="1" fill-rule="nonzero"/><path fill="rgb(94.898987%, 94.898987%, 94.898987%)" d="M 432.546875 635.761719 C 432.398438 611.789062 434.917969 587.878906 435.277344 563.949219 C 434.128906 563.882812 432.988281 563.824219 431.847656 563.792969 C 406.644531 563.082031 393.667969 585.300781 390.578125 612.109375 C 388.550781 629.894531 390.554688 658.484375 394.476562 683.441406 L 436.601562 683.441406 C 433.0625 667.867188 432.644531 651.496094 432.546875 635.761719 " fill-opacity="1" fill-rule="nonzero"/><path fill="rgb(94.898987%, 94.898987%, 94.898987%)" d="M 541.429688 603.578125 C 535.742188 577.792969 521.878906 569.726562 501.835938 569.625 C 502 607.851562 498.191406 646.800781 486.710938 683.441406 L 540.253906 683.441406 C 544.78125 655.929688 545.765625 623.199219 541.429688 603.578125 " fill-opacity="1" fill-rule="nonzero"/><path fill="rgb(93.728638%, 40.388489%, 39.219666%)" d="M 492.472656 558.269531 L 486.644531 527.78125 L 452.292969 527.78125 L 446.449219 558.269531 L 492.472656 558.269531 " fill-opacity="1" fill-rule="nonzero"/><path fill="rgb(94.509888%, 29.019165%, 67.83905%)" d="M 491.472656 553.019531 C 484.082031 555.398438 476.078125 555.996094 468.398438 555.355469 C 461.78125 554.816406 453.929688 554.117188 447.90625 550.679688 L 443.695312 572.714844 C 443.695312 580.007812 438.972656 600.558594 469.460938 600.558594 C 499.964844 600.558594 495.242188 580.007812 495.242188 572.714844 L 491.472656 553.019531 " fill-opacity="1" fill-rule="nonzero"/><path fill="rgb(10.198975%, 19.219971%, 34.118652%)" d="M 449.371094 543.03125 C 458.867188 552.171875 476.410156 555.117188 491.1875 551.519531 L 486.644531 527.78125 L 452.292969 527.78125 L 449.371094 543.03125 " fill-opacity="1" fill-rule="nonzero"/><path fill="rgb(93.328857%, 9.799194%, 59.21936%)" d="M 446.523438 557.4375 C 448.761719 560.09375 462.425781 563.464844 469.792969 563.515625 C 480.136719 563.601562 489.125 560.902344 492.472656 558.9375 C 493.636719 558.269531 492.984375 553.007812 491.472656 553.019531 C 488.636719 553.027344 474.417969 555.257812 470.445312 555.257812 C 464.65625 555.277344 453.507812 551.9375 447.90625 550.679688 C 445.878906 550.222656 445.125 555.773438 446.523438 557.4375 " fill-opacity="1" fill-rule="nonzero"/><path fill="rgb(93.728638%, 40.388489%, 39.219666%)" d="M 429.113281 489.289062 C 423.566406 490.140625 420.046875 495.757812 423.523438 503.640625 C 426.457031 510.308594 427.132812 516.566406 432.675781 515.71875 C 438.207031 514.871094 441.910156 508.265625 440.925781 500.96875 C 439.945312 493.667969 434.65625 488.441406 429.113281 489.289062 " fill-opacity="1" fill-rule="nonzero"/><path fill="rgb(93.728638%, 40.388489%, 39.219666%)" d="M 509.824219 489.289062 C 504.285156 488.441406 499 493.667969 498 500.96875 C 497.015625 508.265625 500.710938 514.871094 506.25 515.71875 C 511.796875 516.566406 512.464844 510.308594 515.417969 503.640625 C 518.894531 495.757812 515.355469 490.140625 509.824219 489.289062 " fill-opacity="1" fill-rule="nonzero"/><path fill="rgb(93.728638%, 40.388489%, 39.219666%)" d="M 431.582031 473.980469 C 430.65625 477.328125 430.152344 480.847656 430.152344 484.488281 L 430.152344 509.140625 C 430.152344 530.859375 447.75 548.457031 469.460938 548.457031 C 491.1875 548.457031 508.78125 530.859375 508.78125 509.140625 L 508.78125 484.488281 C 508.78125 480.847656 508.265625 477.328125 507.355469 473.980469 C 507.355469 473.980469 495.753906 427.367188 447.550781 448.277344 C 439.375 451.816406 431.582031 473.980469 431.582031 473.980469 " fill-opacity="1" fill-rule="nonzero"/><path fill="rgb(94.898987%, 94.898987%, 94.898987%)" d="M 513.351562 514.621094 C 513.351562 515.960938 512.257812 517.050781 510.914062 517.050781 C 509.566406 517.050781 508.492188 515.960938 508.492188 514.621094 C 508.492188 513.28125 509.566406 512.1875 510.914062 512.1875 C 512.257812 512.1875 513.351562 513.28125 513.351562 514.621094 " fill-opacity="1" fill-rule="nonzero"/><path fill="rgb(94.898987%, 94.898987%, 94.898987%)" d="M 430.488281 514.621094 C 430.488281 515.960938 429.394531 517.050781 428.050781 517.050781 C 426.707031 517.050781 425.613281 515.960938 425.613281 514.621094 C 425.613281 513.28125 426.707031 512.1875 428.050781 512.1875 C 429.394531 512.1875 430.488281 513.28125 430.488281 514.621094 " fill-opacity="1" fill-rule="nonzero"/><path fill="rgb(8.628845%, 11.369324%, 22.749329%)" d="M 430.152344 489.195312 C 430.152344 489.195312 436.246094 481.191406 439.816406 474.441406 C 443.441406 467.605469 447.003906 458.957031 444.523438 447.78125 C 444.523438 447.78125 440.398438 446.875 433.964844 453.953125 C 427.539062 461.035156 424.433594 475.453125 430.152344 489.195312 " fill-opacity="1" fill-rule="nonzero"/><path fill="rgb(8.628845%, 11.369324%, 22.749329%)" d="M 442.433594 462.941406 C 442.433594 462.941406 461.789062 486.007812 483.929688 488.472656 C 506.070312 490.929688 509.707031 498.363281 509.707031 498.363281 C 509.707031 498.363281 515.238281 475.785156 501.902344 455.710938 C 486.617188 432.703125 443.675781 435.617188 439.816406 443.507812 L 442.433594 462.941406 " fill-opacity="1" fill-rule="nonzero"/><path fill="rgb(8.628845%, 11.369324%, 22.749329%)" d="M 300.519531 644.019531 L 297.4375 645.875 L 297.4375 642.886719 C 297.4375 640.671875 295.628906 638.847656 293.410156 638.847656 L 278.183594 638.847656 C 275.96875 638.847656 274.15625 640.671875 274.15625 642.886719 L 274.15625 655.089844 C 274.15625 657.304688 275.96875 659.121094 278.183594 659.121094 L 293.410156 659.121094 C 295.628906 659.121094 297.4375 657.304688 297.4375 655.089844 L 297.4375 652.101562 L 300.519531 653.949219 C 302.171875 655.421875 303.53125 654.816406 303.53125 652.601562 L 303.53125 645.375 C 303.53125 643.15625 302.171875 642.554688 300.519531 644.019531 " fill-opacity="1" fill-rule="nonzero"/><path fill="rgb(8.628845%, 11.369324%, 22.749329%)" d="M 288.84375 628.71875 C 277.667969 628.71875 268.582031 637.820312 268.582031 648.988281 C 268.582031 660.160156 277.667969 669.25 288.84375 669.25 C 300.015625 669.25 309.109375 660.160156 309.109375 648.988281 C 309.109375 637.820312 300.015625 628.71875 288.84375 628.71875 Z M 288.84375 670.671875 C 276.886719 670.671875 267.15625 660.941406 267.15625 648.988281 C 267.15625 637.027344 276.886719 627.304688 288.84375 627.304688 C 300.804688 627.304688 310.523438 637.027344 310.523438 648.988281 C 310.523438 660.941406 300.804688 670.671875 288.84375 670.671875 " fill-opacity="1" fill-rule="nonzero"/><path fill="rgb(8.628845%, 11.369324%, 22.749329%)" d="M 357.921875 655.207031 C 361.03125 655.207031 363.558594 652.683594 363.558594 649.5625 L 363.558594 639.457031 C 363.558594 636.34375 361.03125 633.8125 357.921875 633.8125 C 354.804688 633.8125 352.28125 636.34375 352.28125 639.457031 L 352.28125 649.5625 C 352.28125 652.683594 354.804688 655.207031 357.921875 655.207031 " fill-opacity="1" fill-rule="nonzero"/><path fill="rgb(8.628845%, 11.369324%, 22.749329%)" d="M 365.300781 644.6875 L 364.722656 645.269531 L 364.722656 650.453125 C 364.722656 654.207031 361.667969 657.253906 357.921875 657.253906 C 354.175781 657.253906 351.125 654.207031 351.125 650.453125 L 351.125 645.269531 L 350.535156 644.6875 L 349.957031 645.269531 L 349.957031 650.453125 C 349.957031 654.648438 353.226562 658.0625 357.335938 658.363281 L 357.335938 663.570312 L 357.921875 664.15625 L 358.503906 663.570312 L 358.503906 658.363281 C 362.621094 658.0625 365.886719 654.648438 365.886719 650.453125 L 365.886719 645.269531 L 365.300781 644.6875 " fill-opacity="1" fill-rule="nonzero"/><path fill="rgb(8.628845%, 11.369324%, 22.749329%)" d="M 357.921875 628.71875 C 346.746094 628.71875 337.65625 637.820312 337.65625 648.988281 C 337.65625 660.160156 346.746094 669.25 357.921875 669.25 C 369.09375 669.25 378.179688 660.160156 378.179688 648.988281 C 378.179688 637.820312 369.09375 628.71875 357.921875 628.71875 Z M 357.921875 670.671875 C 345.960938 670.671875 336.234375 660.941406 336.234375 648.988281 C 336.234375 637.027344 345.960938 627.304688 357.921875 627.304688 C 369.878906 627.304688 379.605469 637.027344 379.605469 648.988281 C 379.605469 660.941406 369.878906 670.671875 357.921875 670.671875 " fill-opacity="1" fill-rule="nonzero"/><g clip-path="url(#id3)"><path fill="rgb(100%, 100%, 100%)" d="M 325.28125 418.515625 C 321.660156 418.515625 318.714844 415.574219 318.714844 411.960938 C 318.714844 408.335938 321.660156 405.394531 325.28125 405.394531 C 328.898438 405.394531 331.832031 408.335938 331.832031 411.960938 C 331.832031 415.574219 328.898438 418.515625 325.28125 418.515625 Z M 299.496094 418.515625 C 295.871094 418.515625 292.941406 415.574219 292.941406 411.960938 C 292.941406 408.335938 295.871094 405.394531 299.496094 405.394531 C 303.113281 405.394531 306.050781 408.335938 306.050781 411.960938 C 306.050781 415.574219 303.113281 418.515625 299.496094 418.515625 Z M 273.714844 418.515625 C 270.097656 418.515625 267.160156 415.574219 267.160156 411.960938 C 267.160156 408.335938 270.097656 405.394531 273.714844 405.394531 C 277.335938 405.394531 280.277344 408.335938 280.277344 411.960938 C 280.277344 415.574219 277.335938 418.515625 273.714844 418.515625 Z M 316.578125 397.421875 L 252.988281 397.421875 L 252.988281 426.488281 L 684.375 426.488281 L 684.375 397.421875 L 316.578125 397.421875 " fill-opacity="1" fill-rule="nonzero"/></g><g clip-path="url(#id4)"><path fill="rgb(29.40979%, 43.139648%, 74.508667%)" d="M 815.734375 397.429688 L 815.734375 683.375 L 1247.125 683.375 L 1247.125 397.429688 L 815.734375 397.429688 " fill-opacity="1" fill-rule="nonzero"/></g><path fill="rgb(33.729553%, 47.44873%, 77.249146%)" d="M 1194.40625 615.632812 C 1194.40625 639.839844 1189.15625 662.78125 1179.675781 683.441406 L 883.1875 683.441406 C 873.707031 662.78125 868.464844 639.839844 868.464844 615.632812 C 868.464844 525.609375 941.417969 452.652344 1031.429688 452.652344 C 1121.445312 452.652344 1194.40625 525.609375 1194.40625 615.632812 " fill-opacity="1" fill-rule="nonzero"/><path fill="rgb(30.979919%, 76.858521%, 76.469421%)" d="M 1137.109375 683.441406 C 1140.355469 668.167969 1138.234375 650.871094 1135.503906 637.550781 C 1129.628906 608.707031 1107.277344 583.953125 1082.382812 576.109375 L 1072.039062 683.441406 Z M 927.4375 683.441406 C 921.925781 666.820312 924.265625 646.46875 927.371094 631.292969 C 933.253906 602.457031 955.601562 577.699219 980.496094 569.847656 L 991.082031 679.679688 C 990.527344 680.878906 989.945312 682.144531 989.335938 683.441406 L 927.4375 683.441406 " fill-opacity="1" fill-rule="nonzero"/><path fill="rgb(10.198975%, 19.219971%, 34.118652%)" d="M 946.878906 683.441406 L 965.691406 683.441406 C 963 674.410156 963.625 665.160156 959.207031 656.253906 C 957.847656 653.535156 955.941406 651.003906 953.828125 648.394531 C 953.011719 647.390625 951.226562 645.925781 950.433594 644.628906 C 944.273438 650.628906 943.921875 658.40625 943.609375 664.8125 C 943.28125 671.0625 944.050781 677.332031 946.878906 683.441406 " fill-opacity="1" fill-rule="nonzero"/><path fill="rgb(10.198975%, 19.219971%, 34.118652%)" d="M 1110.632812 653.828125 C 1109.226562 651.628906 1107.277344 648.082031 1102.351562 646.902344 C 1099.105469 659.144531 1092.945312 671.207031 1089.789062 683.441406 L 1113.863281 683.441406 C 1115.003906 676.101562 1116.445312 668.734375 1114.042969 661.414062 C 1113.207031 658.871094 1112.199219 656.304688 1110.632812 653.828125 " fill-opacity="1" fill-rule="nonzero"/><path fill="rgb(30.979919%, 76.858521%, 76.469421%)" d="M 1105.640625 683.441406 C 1110.324219 656.949219 1111.347656 625.429688 1106.863281 606.535156 C 1100.378906 579.289062 1083.722656 572.570312 1059.5625 574.019531 C 1036.679688 575.386719 1015.769531 568.808594 993.25 568.21875 C 967.128906 567.527344 953.671875 588.929688 950.492188 614.75 C 948.351562 631.875 950.433594 659.410156 954.519531 683.441406 L 1105.640625 683.441406 " fill-opacity="1" fill-rule="nonzero"/><path fill="rgb(93.728638%, 40.388489%, 39.219666%)" d="M 1011.410156 529.546875 L 1002.8125 574.46875 C 1002.8125 581.769531 998.101562 596.449219 1028.589844 596.449219 C 1059.078125 596.449219 1054.359375 581.769531 1054.359375 574.46875 L 1045.777344 529.546875 L 1011.410156 529.546875 " fill-opacity="1" fill-rule="nonzero"/><path fill="rgb(10.198975%, 19.219971%, 34.118652%)" d="M 1008.488281 544.796875 C 1017.996094 553.925781 1035.523438 556.882812 1050.3125 553.285156 L 1045.777344 529.546875 L 1011.410156 529.546875 L 1008.488281 544.796875 " fill-opacity="1" fill-rule="nonzero"/><path fill="rgb(93.728638%, 40.388489%, 39.219666%)" d="M 988.230469 491.050781 C 982.695312 491.902344 979.183594 497.519531 982.636719 505.394531 C 985.589844 512.070312 986.25 518.332031 991.800781 517.480469 C 997.34375 516.632812 1001.039062 510.027344 1000.050781 502.722656 C 999.058594 495.421875 993.773438 490.199219 988.230469 491.050781 " fill-opacity="1" fill-rule="nonzero"/><path fill="rgb(93.728638%, 40.388489%, 39.219666%)" d="M 1068.941406 491.050781 C 1063.398438 490.199219 1058.113281 495.421875 1057.121094 502.722656 C 1056.136719 510.027344 1059.835938 516.632812 1065.378906 517.480469 C 1070.914062 518.332031 1071.59375 512.070312 1074.523438 505.394531 C 1078.007812 497.519531 1074.492188 491.902344 1068.941406 491.050781 " fill-opacity="1" fill-rule="nonzero"/><path fill="rgb(93.728638%, 40.388489%, 39.219666%)" d="M 999.707031 459.191406 C 998.78125 462.535156 989.269531 482.613281 989.269531 486.25 L 989.269531 510.898438 C 989.269531 532.613281 1006.882812 550.222656 1028.589844 550.222656 C 1050.296875 550.222656 1067.902344 532.613281 1067.902344 510.898438 L 1067.902344 486.25 C 1067.902344 482.613281 1059.675781 459.398438 1058.746094 456.050781 L 1012.460938 452.652344 L 999.707031 459.191406 " fill-opacity="1" fill-rule="nonzero"/><path fill="rgb(8.628845%, 11.369324%, 22.749329%)" d="M 1046.34375 469.378906 C 1046.695312 471.222656 1047.707031 472.957031 1049.058594 474.195312 C 1052.710938 477.5625 1058.851562 476.136719 1061.800781 479.605469 C 1064.53125 482.855469 1064.03125 488.0625 1064.214844 492.027344 C 1064.328125 494.210938 1064.515625 496.082031 1065.253906 498.164062 C 1065.777344 499.660156 1068.492188 502.832031 1068.492188 504.148438 C 1068.492188 502.242188 1068.453125 499.820312 1068.492188 497.738281 C 1068.574219 492.8125 1069.074219 487.765625 1069.78125 482.886719 C 1070.324219 479.285156 1070.722656 474.121094 1069.988281 469.378906 L 1046.34375 469.378906 " fill-opacity="1" fill-rule="nonzero"/><path fill="rgb(8.628845%, 11.369324%, 22.749329%)" d="M 1076.242188 464.183594 L 1076.605469 463.476562 C 1082.453125 451.222656 1076.8125 426.175781 1059.238281 429.570312 C 1053.234375 430.726562 1048.597656 434.964844 1043.257812 437.578125 C 1037.9375 440.175781 1032.492188 440.199219 1026.707031 439.910156 C 1013.710938 439.25 1001.230469 439.800781 996.621094 453.976562 C 996.179688 455.328125 995.820312 456.707031 995.453125 458.089844 C 986.414062 461.386719 987.054688 475.460938 988.148438 482.886719 C 988.851562 487.765625 989.335938 492.8125 989.4375 497.738281 C 989.476562 499.820312 989.4375 502.242188 989.4375 504.148438 C 989.4375 502.832031 992.148438 499.660156 992.683594 498.164062 C 993.425781 496.082031 993.605469 494.210938 993.714844 492.027344 C 993.898438 488.0625 993.398438 482.855469 996.136719 479.605469 C 999.074219 476.136719 1005.226562 477.5625 1008.878906 474.195312 C 1010.644531 472.566406 1011.851562 470.09375 1011.703125 467.632812 C 1016.527344 470.308594 1021.40625 472.722656 1027.058594 472.664062 C 1032.351562 472.597656 1037.46875 470.710938 1042.773438 470.519531 C 1054.566406 470.109375 1069.230469 477.644531 1076.242188 464.183594 " fill-opacity="1" fill-rule="nonzero"/><path fill="rgb(8.628845%, 11.369324%, 22.749329%)" d="M 862.570312 644.019531 L 859.484375 645.875 L 859.484375 642.886719 C 859.484375 640.671875 857.667969 638.847656 855.453125 638.847656 L 840.230469 638.847656 C 838.019531 638.847656 836.195312 640.671875 836.195312 642.886719 L 836.195312 655.089844 C 836.195312 657.304688 838.019531 659.121094 840.230469 659.121094 L 855.453125 659.121094 C 857.667969 659.121094 859.484375 657.304688 859.484375 655.089844 L 859.484375 652.101562 L 862.570312 653.949219 C 864.21875 655.421875 865.578125 654.816406 865.578125 652.601562 L 865.578125 645.375 C 865.578125 643.15625 864.21875 642.554688 862.570312 644.019531 " fill-opacity="1" fill-rule="nonzero"/><path fill="rgb(8.628845%, 11.369324%, 22.749329%)" d="M 850.886719 628.71875 C 839.714844 628.71875 830.617188 637.820312 830.617188 648.988281 C 830.617188 660.160156 839.714844 669.25 850.886719 669.25 C 862.054688 669.25 871.152344 660.160156 871.152344 648.988281 C 871.152344 637.820312 862.054688 628.71875 850.886719 628.71875 Z M 850.886719 670.671875 C 838.925781 670.671875 829.203125 660.941406 829.203125 648.988281 C 829.203125 637.027344 838.925781 627.304688 850.886719 627.304688 C 862.847656 627.304688 872.578125 637.027344 872.578125 648.988281 C 872.578125 660.941406 862.847656 670.671875 850.886719 670.671875 " fill-opacity="1" fill-rule="nonzero"/><path fill="rgb(8.628845%, 11.369324%, 22.749329%)" d="M 919.960938 655.207031 C 923.074219 655.207031 925.605469 652.683594 925.605469 649.5625 L 925.605469 639.457031 C 925.605469 636.34375 923.074219 633.8125 919.960938 633.8125 C 916.847656 633.8125 914.328125 636.34375 914.328125 639.457031 L 914.328125 649.5625 C 914.328125 652.683594 916.847656 655.207031 919.960938 655.207031 " fill-opacity="1" fill-rule="nonzero"/><path fill="rgb(8.628845%, 11.369324%, 22.749329%)" d="M 927.34375 644.6875 L 926.761719 645.269531 L 926.761719 650.453125 C 926.761719 654.207031 923.714844 657.253906 919.960938 657.253906 C 916.214844 657.253906 913.164062 654.207031 913.164062 650.453125 L 913.164062 645.269531 L 912.582031 644.6875 L 911.996094 645.269531 L 911.996094 650.453125 C 911.996094 654.648438 915.265625 658.0625 919.371094 658.363281 L 919.371094 663.570312 L 919.960938 664.15625 L 920.550781 663.570312 L 920.550781 658.363281 C 924.664062 658.0625 927.925781 654.648438 927.925781 650.453125 L 927.925781 645.269531 L 927.34375 644.6875 " fill-opacity="1" fill-rule="nonzero"/><path fill="rgb(8.628845%, 11.369324%, 22.749329%)" d="M 919.960938 628.71875 C 908.792969 628.71875 899.695312 637.820312 899.695312 648.988281 C 899.695312 660.160156 908.792969 669.25 919.960938 669.25 C 931.132812 669.25 940.230469 660.160156 940.230469 648.988281 C 940.230469 637.820312 931.132812 628.71875 919.960938 628.71875 Z M 919.960938 670.671875 C 908.003906 670.671875 898.277344 660.941406 898.277344 648.988281 C 898.277344 637.027344 908.003906 627.304688 919.960938 627.304688 C 931.921875 627.304688 941.652344 637.027344 941.652344 648.988281 C 941.652344 660.941406 931.921875 670.671875 919.960938 670.671875 " fill-opacity="1" fill-rule="nonzero"/><g clip-path="url(#id5)"><path fill="rgb(100%, 100%, 100%)" d="M 887.324219 418.519531 C 883.691406 418.519531 880.757812 415.582031 880.757812 411.964844 C 880.757812 408.34375 883.691406 405.40625 887.324219 405.40625 C 890.9375 405.40625 893.871094 408.34375 893.871094 411.964844 C 893.871094 415.582031 890.9375 418.519531 887.324219 418.519531 Z M 861.542969 418.519531 C 857.917969 418.519531 854.984375 415.582031 854.984375 411.964844 C 854.984375 408.34375 857.917969 405.40625 861.542969 405.40625 C 865.164062 405.40625 868.097656 408.34375 868.097656 411.964844 C 868.097656 415.582031 865.164062 418.519531 861.542969 418.519531 Z M 835.761719 418.519531 C 832.140625 418.519531 829.203125 415.582031 829.203125 411.964844 C 829.203125 408.34375 832.140625 405.40625 835.761719 405.40625 C 839.378906 405.40625 842.316406 408.34375 842.316406 411.964844 C 842.316406 415.582031 839.378906 418.519531 835.761719 418.519531 Z M 878.617188 397.429688 L 815.03125 397.429688 L 815.03125 426.496094 L 1246.417969 426.496094 L 1246.417969 397.429688 L 878.617188 397.429688 " fill-opacity="1" fill-rule="nonzero"/></g><path fill="rgb(30.979919%, 76.858521%, 76.469421%)" d="M 28.796875 797.433594 L 28.796875 1083.371094 L 460.183594 1083.371094 L 460.183594 797.433594 L 28.796875 797.433594 " fill-opacity="1" fill-rule="nonzero"/><path fill="rgb(44.709778%, 81.568909%, 79.998779%)" d="M 401.863281 1017.882812 C 401.863281 1041.265625 396.796875 1063.425781 387.644531 1083.371094 L 101.335938 1083.371094 C 92.183594 1063.425781 87.121094 1041.265625 87.121094 1017.882812 C 87.121094 930.953125 157.570312 860.496094 244.496094 860.496094 C 331.417969 860.496094 401.863281 930.953125 401.863281 1017.882812 " fill-opacity="1" fill-rule="nonzero"/><path fill="rgb(29.40979%, 43.139648%, 74.508667%)" d="M 350.171875 1083.371094 C 353.414062 1068.09375 351.285156 1050.789062 348.566406 1037.472656 C 342.683594 1008.636719 320.339844 983.878906 295.445312 976.039062 L 285.085938 1083.371094 Z M 140.5 1083.371094 C 134.988281 1066.746094 137.324219 1046.394531 140.429688 1031.21875 C 146.308594 1002.375 168.660156 977.628906 193.554688 969.789062 L 204.144531 1079.597656 C 203.585938 1080.816406 203.003906 1082.082031 202.402344 1083.371094 L 140.5 1083.371094 " fill-opacity="1" fill-rule="nonzero"/><path fill="rgb(10.198975%, 19.219971%, 34.118652%)" d="M 159.921875 1083.371094 L 178.738281 1083.371094 C 176.066406 1074.339844 176.6875 1065.089844 172.257812 1056.183594 C 170.898438 1053.460938 169.007812 1050.929688 166.875 1048.320312 C 166.070312 1047.308594 164.28125 1045.859375 163.480469 1044.554688 C 157.316406 1050.554688 156.984375 1058.332031 156.664062 1064.734375 C 156.347656 1070.992188 157.109375 1077.261719 159.921875 1083.371094 " fill-opacity="1" fill-rule="nonzero"/><path fill="rgb(10.198975%, 19.219971%, 34.118652%)" d="M 323.6875 1053.753906 C 322.277344 1051.554688 320.339844 1048 315.410156 1046.824219 C 312.167969 1059.066406 306.007812 1071.125 302.835938 1083.371094 L 326.917969 1083.371094 C 328.058594 1076.027344 329.484375 1068.660156 327.089844 1061.34375 C 326.261719 1058.796875 325.265625 1056.226562 323.6875 1053.753906 " fill-opacity="1" fill-rule="nonzero"/><path fill="rgb(29.40979%, 43.139648%, 74.508667%)" d="M 318.6875 1083.371094 C 323.378906 1056.875 324.394531 1025.359375 319.902344 1006.464844 C 313.441406 979.207031 296.769531 972.5 272.625 973.949219 C 249.738281 975.304688 228.832031 968.726562 206.304688 968.144531 C 180.175781 967.457031 166.730469 988.855469 163.53125 1014.679688 C 161.414062 1031.804688 163.492188 1059.328125 167.566406 1083.371094 L 318.6875 1083.371094 " fill-opacity="1" fill-rule="nonzero"/><path fill="rgb(15.289307%, 19.999695%, 30.198669%)" d="M 217.488281 1002.328125 C 219.234375 1005.128906 221.472656 1007.667969 222.890625 1010.675781 C 224.894531 1014.921875 223.585938 1018.148438 221.710938 1022.078125 C 220.558594 1024.484375 219.464844 1027.015625 219.144531 1029.679688 C 218.730469 1033.125 219.816406 1036.207031 220.542969 1039.527344 C 221.464844 1043.742188 220.300781 1046.542969 218.117188 1050.074219 C 216.539062 1052.621094 215.300781 1055.320312 214.957031 1058.332031 C 214.394531 1063.28125 216.953125 1069.703125 220.046875 1073.480469 C 220.785156 1074.386719 222.546875 1073.671875 222.429688 1072.496094 C 222.113281 1069.410156 220.234375 1066.832031 219.214844 1063.941406 C 217.957031 1060.378906 218.398438 1056.992188 220.105469 1053.636719 C 221.480469 1050.949219 223.488281 1048.625 224.191406 1045.628906 C 224.917969 1042.515625 224.09375 1039.417969 223.304688 1036.414062 C 222.261719 1032.460938 222.308594 1029.226562 223.832031 1025.433594 C 224.902344 1022.777344 226.113281 1020.148438 226.429688 1017.269531 C 227.109375 1011.027344 222.488281 1005.738281 218.203125 1001.769531 C 217.832031 1001.425781 217.203125 1001.867188 217.488281 1002.328125 " fill-opacity="1" fill-rule="nonzero"/><path fill="rgb(15.289307%, 19.999695%, 30.198669%)" d="M 276.332031 1001.769531 C 272.203125 1005.597656 267.617188 1010.765625 268.082031 1016.785156 C 268.296875 1019.558594 269.335938 1022.144531 270.402344 1024.6875 C 272.105469 1028.746094 272.359375 1032.117188 271.238281 1036.414062 C 270.488281 1039.257812 269.722656 1042.148438 270.265625 1045.113281 C 270.828125 1048.164062 272.738281 1050.496094 274.175781 1053.171875 C 275.941406 1056.449219 276.671875 1059.921875 275.484375 1063.511719 C 274.472656 1066.5625 272.445312 1069.261719 272.113281 1072.496094 C 271.996094 1073.664062 273.75 1074.398438 274.496094 1073.480469 C 277.546875 1069.761719 280.082031 1063.453125 279.613281 1058.570312 C 279.332031 1055.667969 278.179688 1052.976562 276.6875 1050.507812 C 274.4375 1046.765625 273.003906 1044.023438 274 1039.527344 C 274.691406 1036.40625 275.75 1033.433594 275.449219 1030.195312 C 275.195312 1027.5 274.1875 1024.984375 273.046875 1022.546875 C 271.3125 1018.84375 269.652344 1015.710938 271.292969 1011.582031 C 272.644531 1008.175781 275.125 1005.40625 277.046875 1002.328125 C 277.332031 1001.867188 276.703125 1001.425781 276.332031 1001.769531 " fill-opacity="1" fill-rule="nonzero"/><path fill="rgb(15.289307%, 19.999695%, 30.198669%)" d="M 224.246094 1072.496094 C 224.246094 1074.28125 222.804688 1075.71875 221.035156 1075.71875 C 219.246094 1075.71875 217.808594 1074.28125 217.808594 1072.496094 C 217.808594 1070.71875 219.246094 1069.285156 221.035156 1069.285156 C 222.804688 1069.285156 224.246094 1070.71875 224.246094 1072.496094 " fill-opacity="1" fill-rule="nonzero"/><path fill="rgb(15.289307%, 19.999695%, 30.198669%)" d="M 276.804688 1072.496094 C 276.804688 1074.28125 275.367188 1075.71875 273.59375 1075.71875 C 271.804688 1075.71875 270.367188 1074.28125 270.367188 1072.496094 C 270.367188 1070.71875 271.804688 1069.285156 273.59375 1069.285156 C 275.367188 1069.285156 276.804688 1070.71875 276.804688 1072.496094 " fill-opacity="1" fill-rule="nonzero"/><path fill="rgb(22.749329%, 53.329468%, 74.508667%)" d="M 317.234375 981.914062 C 312.554688 976.84375 309.160156 974.390625 303.472656 968.695312 C 298.402344 962.371094 299.664062 955.402344 291.441406 950.972656 C 283.214844 947.179688 255.375 947.808594 247.132812 949.710938 C 238.910156 947.808594 211.066406 947.179688 202.847656 950.972656 C 194.613281 955.402344 195.875 962.371094 190.808594 968.695312 C 185.125 974.390625 181.710938 976.84375 177.046875 981.914062 C 166.535156 993.304688 189.546875 993.378906 196.515625 995.910156 C 210.429688 1001.609375 222.457031 1007.945312 233.21875 1018.070312 C 239.546875 1023.769531 243.339844 1029.460938 247.132812 1037.054688 C 250.941406 1029.460938 254.738281 1023.769531 261.0625 1018.070312 C 271.824219 1007.945312 283.839844 1001.609375 297.769531 995.910156 C 304.734375 993.378906 327.742188 993.304688 317.234375 981.914062 " fill-opacity="1" fill-rule="nonzero"/><path fill="rgb(93.728638%, 40.388489%, 39.219666%)" d="M 230.132812 937.6875 L 221.535156 982.613281 C 221.535156 989.90625 216.808594 1010.464844 247.300781 1010.464844 C 277.800781 1010.464844 273.078125 989.90625 273.078125 982.613281 L 264.480469 937.6875 L 230.132812 937.6875 " fill-opacity="1" fill-rule="nonzero"/><path fill="rgb(10.198975%, 19.219971%, 34.118652%)" d="M 227.207031 952.9375 C 236.707031 962.070312 254.25 965.023438 269.027344 961.4375 L 264.480469 937.6875 L 230.132812 937.6875 L 227.207031 952.9375 " fill-opacity="1" fill-rule="nonzero"/><path fill="rgb(93.728638%, 40.388489%, 39.219666%)" d="M 206.941406 899.199219 C 201.402344 900.046875 197.886719 905.65625 201.363281 913.542969 C 204.296875 920.21875 204.976562 926.476562 210.515625 925.628906 C 216.054688 924.777344 219.75 918.179688 218.769531 910.875 C 217.78125 903.574219 212.492188 898.351562 206.941406 899.199219 " fill-opacity="1" fill-rule="nonzero"/><path fill="rgb(93.728638%, 40.388489%, 39.219666%)" d="M 287.65625 899.199219 C 282.121094 898.351562 276.828125 903.574219 275.832031 910.875 C 274.851562 918.179688 278.542969 924.777344 284.082031 925.628906 C 289.636719 926.476562 290.304688 920.21875 293.253906 913.542969 C 296.714844 905.65625 293.195312 900.046875 287.65625 899.199219 " fill-opacity="1" fill-rule="nonzero"/><path fill="rgb(93.728638%, 40.388489%, 39.219666%)" d="M 209.421875 883.890625 C 208.492188 887.234375 207.992188 890.757812 207.992188 894.394531 L 207.992188 919.050781 C 207.992188 940.761719 225.59375 958.363281 247.300781 958.363281 C 269.007812 958.363281 286.621094 940.761719 286.621094 919.050781 L 286.621094 894.394531 C 286.621094 890.757812 286.121094 887.234375 285.179688 883.890625 C 285.179688 883.890625 273.59375 837.273438 225.382812 858.183594 C 217.214844 861.722656 209.421875 883.890625 209.421875 883.890625 " fill-opacity="1" fill-rule="nonzero"/><path fill="rgb(8.628845%, 11.369324%, 22.749329%)" d="M 285.855469 863.230469 C 285.265625 861.367188 284.472656 859.558594 283.460938 857.808594 C 278.296875 848.960938 268.722656 845.113281 258.917969 844.15625 C 250.050781 843.300781 239.933594 843.542969 231.585938 846.929688 C 220.882812 851.277344 213.820312 861.480469 209.890625 871.96875 C 207.464844 878.445312 206.25 885.378906 206.730469 892.296875 C 206.953125 895.417969 207.941406 898.425781 207.992188 901.503906 C 208.039062 903.585938 207.992188 905.996094 207.992188 907.914062 C 212.574219 902.144531 213.75 892.628906 213.503906 885.21875 L 213.601562 885.363281 C 213.632812 884.488281 213.640625 883.574219 213.683594 882.632812 C 213.835938 878.734375 214.359375 874.574219 217.265625 871.902344 C 219.605469 869.765625 222.84375 869.011719 225.980469 869.328125 C 227.933594 869.515625 229.855469 870.097656 231.484375 870.992188 C 235.921875 873.453125 238.386719 876.648438 243.824219 877.027344 C 249.820312 877.464844 256.367188 876.082031 261.589844 873.042969 C 263.902344 871.710938 266.320312 869.9375 268.957031 869.039062 C 270.5625 868.464844 272.21875 868.238281 273.976562 868.625 C 277.800781 869.445312 278.011719 872.917969 277.71875 876.414062 C 277.550781 878.484375 277.191406 880.59375 277.304688 882.167969 C 277.386719 883.523438 278.769531 896.117188 279.667969 896.808594 C 281.328125 901.113281 283.519531 904.914062 286.621094 908.03125 L 286.621094 894.402344 C 286.234375 890.085938 287.21875 885.660156 287.480469 881.359375 C 287.851562 875.273438 287.742188 869.011719 285.855469 863.230469 " fill-opacity="1" fill-rule="nonzero"/><path fill="rgb(8.628845%, 11.369324%, 22.749329%)" d="M 75.621094 1043.953125 L 72.539062 1045.796875 L 72.539062 1042.8125 C 72.539062 1040.597656 70.722656 1038.777344 68.507812 1038.777344 L 53.285156 1038.777344 C 51.070312 1038.777344 49.257812 1040.597656 49.257812 1042.8125 L 49.257812 1055.011719 C 49.257812 1057.230469 51.070312 1059.046875 53.285156 1059.046875 L 68.507812 1059.046875 C 70.722656 1059.046875 72.539062 1057.230469 72.539062 1055.011719 L 72.539062 1052.023438 L 75.621094 1053.878906 C 77.277344 1055.351562 78.632812 1054.742188 78.632812 1052.53125 L 78.632812 1045.304688 C 78.632812 1043.089844 77.277344 1042.480469 75.621094 1043.953125 " fill-opacity="1" fill-rule="nonzero"/><path fill="rgb(8.628845%, 11.369324%, 22.749329%)" d="M 63.945312 1028.644531 C 52.769531 1028.644531 43.683594 1037.746094 43.683594 1048.90625 C 43.683594 1060.085938 52.769531 1069.179688 63.945312 1069.179688 C 75.117188 1069.179688 84.210938 1060.085938 84.210938 1048.90625 C 84.210938 1037.746094 75.117188 1028.644531 63.945312 1028.644531 Z M 63.945312 1070.601562 C 51.988281 1070.601562 42.257812 1060.871094 42.257812 1048.90625 C 42.257812 1036.953125 51.988281 1027.230469 63.945312 1027.230469 C 75.898438 1027.230469 85.628906 1036.953125 85.628906 1048.90625 C 85.628906 1060.871094 75.898438 1070.601562 63.945312 1070.601562 " fill-opacity="1" fill-rule="nonzero"/><path fill="rgb(8.628845%, 11.369324%, 22.749329%)" d="M 133.019531 1055.144531 C 136.125 1055.144531 138.660156 1052.613281 138.660156 1049.492188 L 138.660156 1039.375 C 138.660156 1036.269531 136.125 1033.742188 133.019531 1033.742188 C 129.90625 1033.742188 127.378906 1036.269531 127.378906 1039.375 L 127.378906 1049.492188 C 127.378906 1052.613281 129.90625 1055.144531 133.019531 1055.144531 " fill-opacity="1" fill-rule="nonzero"/><path fill="rgb(8.628845%, 11.369324%, 22.749329%)" d="M 140.394531 1044.613281 L 139.816406 1045.195312 L 139.816406 1050.390625 C 139.816406 1054.136719 136.765625 1057.183594 133.019531 1057.183594 C 129.269531 1057.183594 126.21875 1054.136719 126.21875 1050.390625 L 126.21875 1045.195312 L 125.632812 1044.613281 L 125.054688 1045.195312 L 125.054688 1050.390625 C 125.054688 1054.578125 128.320312 1057.988281 132.4375 1058.296875 L 132.4375 1063.5 L 133.019531 1064.074219 L 133.601562 1063.5 L 133.601562 1058.296875 C 137.71875 1057.988281 140.984375 1054.578125 140.984375 1050.390625 L 140.984375 1045.195312 L 140.394531 1044.613281 " fill-opacity="1" fill-rule="nonzero"/><path fill="rgb(8.628845%, 11.369324%, 22.749329%)" d="M 133.019531 1028.644531 C 121.84375 1028.644531 112.757812 1037.746094 112.757812 1048.90625 C 112.757812 1060.085938 121.84375 1069.179688 133.019531 1069.179688 C 144.191406 1069.179688 153.28125 1060.085938 153.28125 1048.90625 C 153.28125 1037.746094 144.191406 1028.644531 133.019531 1028.644531 Z M 133.019531 1070.601562 C 121.066406 1070.601562 111.332031 1060.871094 111.332031 1048.90625 C 111.332031 1036.953125 121.066406 1027.230469 133.019531 1027.230469 C 144.972656 1027.230469 154.703125 1036.953125 154.703125 1048.90625 C 154.703125 1060.871094 144.972656 1070.601562 133.019531 1070.601562 " fill-opacity="1" fill-rule="nonzero"/><path fill="rgb(100%, 100%, 100%)" d="M 100.375 818.445312 C 96.757812 818.445312 93.8125 815.515625 93.8125 811.886719 C 93.8125 808.261719 96.757812 805.332031 100.375 805.332031 C 103.996094 805.332031 106.929688 808.261719 106.929688 811.886719 C 106.929688 815.515625 103.996094 818.445312 100.375 818.445312 Z M 74.597656 818.445312 C 70.96875 818.445312 68.039062 815.515625 68.039062 811.886719 C 68.039062 808.261719 70.96875 805.332031 74.597656 805.332031 C 78.214844 805.332031 81.15625 808.261719 81.15625 811.886719 C 81.15625 815.515625 78.214844 818.445312 74.597656 818.445312 Z M 48.816406 818.445312 C 45.195312 818.445312 42.257812 815.515625 42.257812 811.886719 C 42.257812 808.261719 45.195312 805.332031 48.816406 805.332031 C 52.441406 805.332031 55.371094 808.261719 55.371094 811.886719 C 55.371094 815.515625 52.441406 818.445312 48.816406 818.445312 Z M 91.675781 797.351562 L 28.078125 797.351562 L 28.078125 826.421875 L 459.476562 826.421875 L 459.476562 797.351562 L 91.675781 797.351562 " fill-opacity="1" fill-rule="nonzero"/><path fill="rgb(91.369629%, 91.369629%, 91.369629%)" d="M 1040.652344 797.425781 L 1040.652344 1083.367188 L 1472.039062 1083.367188 L 1472.039062 797.425781 L 1040.652344 797.425781 " fill-opacity="1" fill-rule="nonzero"/><path fill="rgb(100%, 100%, 100%)" d="M 1420.988281 1014.863281 C 1420.988281 1039.316406 1415.6875 1062.492188 1406.105469 1083.371094 L 1106.566406 1083.371094 C 1096.996094 1062.492188 1091.695312 1039.316406 1091.695312 1014.863281 C 1091.695312 923.910156 1165.398438 850.199219 1256.335938 850.199219 C 1347.285156 850.199219 1420.988281 923.910156 1420.988281 1014.863281 " fill-opacity="1" fill-rule="nonzero"/><path fill="rgb(65.489197%, 33.329773%, 27.059937%)" d="M 1354.582031 1083.371094 C 1357.601562 1068.09375 1355.636719 1050.789062 1353.101562 1037.480469 C 1347.613281 1008.636719 1326.84375 983.878906 1303.691406 976.039062 L 1294.074219 1083.371094 Z M 1159.648438 1083.371094 C 1154.527344 1066.75 1156.703125 1046.398438 1159.582031 1031.222656 C 1165.070312 1002.375 1185.832031 977.628906 1208.976562 969.789062 L 1218.824219 1079.609375 C 1218.308594 1080.816406 1217.769531 1082.082031 1217.203125 1083.371094 L 1159.648438 1083.371094 " fill-opacity="1" fill-rule="nonzero"/><path fill="rgb(10.198975%, 19.219971%, 34.118652%)" d="M 1177.71875 1083.371094 L 1195.207031 1083.371094 C 1192.726562 1074.339844 1193.300781 1065.089844 1189.1875 1056.183594 C 1187.921875 1053.460938 1186.152344 1050.929688 1184.183594 1048.320312 C 1183.421875 1047.316406 1181.761719 1045.859375 1181.03125 1044.554688 C 1175.296875 1050.554688 1174.972656 1058.339844 1174.6875 1064.734375 C 1174.382812 1070.992188 1175.105469 1077.261719 1177.71875 1083.371094 " fill-opacity="1" fill-rule="nonzero"/><path fill="rgb(10.198975%, 19.219971%, 34.118652%)" d="M 1329.960938 1053.753906 C 1328.664062 1051.554688 1326.851562 1048.007812 1322.269531 1046.824219 C 1319.261719 1059.070312 1313.53125 1071.132812 1310.585938 1083.367188 L 1332.96875 1083.367188 C 1334.039062 1076.027344 1335.363281 1068.660156 1333.140625 1061.34375 C 1332.355469 1058.796875 1331.4375 1056.222656 1329.960938 1053.753906 " fill-opacity="1" fill-rule="nonzero"/><path fill="rgb(65.489197%, 33.329773%, 27.059937%)" d="M 1325.324219 1083.367188 C 1329.6875 1056.875 1330.628906 1025.359375 1326.464844 1006.460938 C 1320.441406 979.214844 1304.960938 972.5 1282.492188 973.945312 C 1261.210938 975.3125 1241.785156 968.734375 1220.839844 968.144531 C 1196.546875 967.453125 1184.046875 988.855469 1181.078125 1014.675781 C 1179.101562 1031.800781 1181.039062 1059.328125 1184.820312 1083.367188 L 1325.324219 1083.367188 " fill-opacity="1" fill-rule="nonzero"/><path fill="rgb(95.689392%, 43.919373%, 57.649231%)" d="M 1194.304688 977.246094 C 1177.511719 988.667969 1163.859375 1008.679688 1159.582031 1031.21875 C 1156.703125 1046.394531 1154.53125 1066.746094 1159.652344 1083.371094 L 1217.203125 1083.371094 C 1217.769531 1082.082031 1218.308594 1080.816406 1218.828125 1079.609375 L 1212.167969 1005.355469 C 1203.863281 998.214844 1197.070312 987.703125 1194.304688 977.246094 " fill-opacity="1" fill-rule="nonzero"/><path fill="rgb(95.689392%, 43.919373%, 57.649231%)" d="M 1353.101562 1037.480469 C 1349.300781 1017.417969 1338.0625 999.355469 1323.800781 987.558594 C 1323.46875 988.351562 1323.148438 989.160156 1322.773438 989.941406 C 1319.410156 997.066406 1314.179688 1003.089844 1307.523438 1007.652344 C 1305.28125 1009.203125 1302.90625 1010.558594 1300.484375 1011.851562 L 1294.074219 1083.371094 L 1354.582031 1083.371094 C 1357.601562 1068.09375 1355.636719 1050.789062 1353.101562 1037.480469 " fill-opacity="1" fill-rule="nonzero"/><path fill="rgb(10.198975%, 19.219971%, 34.118652%)" d="M 1177.71875 1083.371094 L 1195.207031 1083.371094 C 1192.726562 1074.339844 1193.300781 1065.089844 1189.1875 1056.183594 C 1187.921875 1053.460938 1186.152344 1050.929688 1184.183594 1048.320312 C 1183.421875 1047.316406 1181.761719 1045.859375 1181.03125 1044.554688 C 1175.296875 1050.554688 1174.972656 1058.339844 1174.6875 1064.734375 C 1174.382812 1070.992188 1175.105469 1077.261719 1177.71875 1083.371094 " fill-opacity="1" fill-rule="nonzero"/><path fill="rgb(10.198975%, 19.219971%, 34.118652%)" d="M 1329.960938 1053.753906 C 1328.664062 1051.554688 1326.851562 1048.007812 1322.269531 1046.824219 C 1319.261719 1059.070312 1313.53125 1071.132812 1310.585938 1083.367188 L 1332.96875 1083.367188 C 1334.039062 1076.027344 1335.363281 1068.660156 1333.140625 1061.34375 C 1332.355469 1058.796875 1331.4375 1056.222656 1329.960938 1053.753906 " fill-opacity="1" fill-rule="nonzero"/><path fill="rgb(95.689392%, 43.919373%, 57.649231%)" d="M 1326.464844 1006.460938 C 1325.226562 1000.894531 1323.601562 996.199219 1321.597656 992.226562 C 1318.238281 998.355469 1313.464844 1003.589844 1307.519531 1007.652344 C 1294.441406 1016.625 1278.25 1021.304688 1262.183594 1021.40625 C 1245.691406 1021.511719 1229.207031 1017.625 1215.804688 1008.210938 C 1206.421875 1001.609375 1198.386719 990.496094 1194.855469 979.191406 C 1187.183594 987.78125 1182.691406 1000.566406 1181.078125 1014.675781 C 1179.101562 1031.800781 1181.039062 1059.328125 1184.820312 1083.367188 L 1325.324219 1083.367188 C 1329.6875 1056.875 1330.628906 1025.359375 1326.464844 1006.460938 " fill-opacity="1" fill-rule="nonzero"/><path fill="rgb(100%, 100%, 100%)" d="M 1193.410156 981.402344 C 1193.632812 982.132812 1193.898438 982.851562 1194.160156 983.570312 C 1194.425781 984.316406 1194.707031 985.050781 1195 985.78125 C 1195.292969 986.5 1195.605469 987.191406 1195.929688 987.898438 C 1196.261719 988.628906 1196.609375 989.363281 1196.964844 990.09375 C 1197.308594 990.761719 1197.675781 991.417969 1198.03125 992.074219 C 1198.433594 992.816406 1198.835938 993.558594 1199.265625 994.28125 C 1199.632812 994.875 1200.015625 995.457031 1200.390625 996.046875 C 1200.875 996.796875 1201.367188 997.554688 1201.867188 998.296875 C 1202.207031 998.765625 1202.5625 999.226562 1202.914062 999.695312 C 1203.515625 1000.488281 1204.101562 1001.300781 1204.730469 1002.074219 L 1205.183594 1002.582031 C 1206.972656 1004.71875 1208.84375 1006.71875 1210.84375 1008.515625 L 1210.84375 1008.523438 C 1212.054688 1009.625 1213.308594 1010.65625 1214.574219 1011.605469 C 1228.382812 1021.769531 1245.375 1025.964844 1262.367188 1025.847656 C 1276.085938 1025.753906 1289.847656 1022.21875 1301.832031 1015.542969 L 1301.832031 1015.53125 C 1302.921875 1014.917969 1304.003906 1014.285156 1305.078125 1013.636719 C 1306.425781 1012.789062 1307.78125 1011.9375 1309.078125 1011.007812 C 1309.871094 1010.429688 1310.675781 1009.824219 1311.445312 1009.191406 L 1312.261719 1008.484375 C 1312.734375 1008.082031 1313.214844 1007.667969 1313.664062 1007.261719 L 1314.648438 1006.328125 L 1315.746094 1005.210938 C 1316.097656 1004.84375 1316.433594 1004.480469 1316.777344 1004.101562 L 1317.671875 1003.070312 C 1318.027344 1002.644531 1318.386719 1002.230469 1318.71875 1001.808594 L 1319.46875 1000.839844 C 1319.824219 1000.355469 1320.164062 999.890625 1320.503906 999.410156 L 1321.078125 998.527344 C 1321.425781 998.003906 1321.785156 997.476562 1322.105469 996.929688 L 1322.523438 996.214844 C 1322.875 995.597656 1323.238281 994.988281 1323.554688 994.363281 C 1323.992188 993.546875 1324.402344 992.726562 1324.78125 991.875 L 1324.929688 991.519531 C 1323.554688 990.136719 1322.160156 988.804688 1320.71875 987.554688 C 1320.40625 988.34375 1320.078125 989.15625 1319.734375 989.933594 C 1319.378906 990.71875 1319.003906 991.476562 1318.609375 992.234375 C 1318.292969 992.816406 1317.984375 993.382812 1317.644531 993.949219 L 1317.265625 994.613281 C 1316.953125 995.117188 1316.644531 995.605469 1316.3125 996.105469 L 1315.765625 996.910156 C 1315.460938 997.363281 1315.132812 997.804688 1314.800781 998.226562 L 1314.121094 999.125 C 1313.808594 999.523438 1313.476562 999.917969 1313.164062 1000.308594 L 1312.3125 1001.265625 L 1311.355469 1002.28125 L 1310.335938 1003.3125 L 1309.441406 1004.171875 C 1309.023438 1004.570312 1308.578125 1004.945312 1308.136719 1005.320312 L 1307.375 1005.976562 C 1306.671875 1006.550781 1305.9375 1007.117188 1305.183594 1007.648438 C 1303.980469 1008.523438 1302.734375 1009.304688 1301.476562 1010.089844 C 1300.492188 1010.695312 1299.5 1011.277344 1298.46875 1011.84375 C 1287.371094 1018.050781 1274.636719 1021.308594 1261.921875 1021.402344 C 1246.191406 1021.511719 1230.457031 1017.625 1217.671875 1008.210938 C 1216.480469 1007.324219 1215.324219 1006.371094 1214.199219 1005.351562 C 1212.355469 1003.6875 1210.613281 1001.839844 1208.941406 999.851562 L 1208.546875 999.382812 C 1207.949219 998.667969 1207.402344 997.910156 1206.859375 997.179688 C 1206.527344 996.738281 1206.207031 996.320312 1205.882812 995.878906 C 1205.417969 995.195312 1204.96875 994.496094 1204.515625 993.789062 C 1204.167969 993.25 1203.808594 992.714844 1203.476562 992.160156 C 1203.074219 991.484375 1202.71875 990.808594 1202.324219 990.121094 C 1201.992188 989.511719 1201.664062 988.90625 1201.347656 988.28125 C 1201.011719 987.613281 1200.695312 986.929688 1200.390625 986.242188 C 1200.097656 985.597656 1199.792969 984.949219 1199.535156 984.292969 C 1199.257812 983.609375 1198.988281 982.929688 1198.738281 982.246094 C 1198.488281 981.578125 1198.257812 980.910156 1198.046875 980.238281 C 1197.734375 979.242188 1197.414062 978.242188 1197.152344 977.242188 C 1195.777344 978.222656 1194.4375 979.289062 1193.101562 980.386719 L 1193.410156 981.402344 " fill-opacity="1" fill-rule="nonzero"/><path fill="rgb(65.489197%, 33.329773%, 27.059937%)" d="M 1282.109375 974.101562 L 1278.34375 954.40625 L 1273.519531 929.175781 L 1239.160156 929.175781 L 1233.324219 959.65625 L 1230.574219 974.101562 C 1230.574219 981.398438 1225.84375 1001.945312 1256.328125 1001.945312 C 1286.835938 1001.945312 1282.109375 981.398438 1282.109375 974.101562 " fill-opacity="1" fill-rule="nonzero"/><path fill="rgb(10.198975%, 19.219971%, 34.118652%)" d="M 1236.25 944.421875 C 1245.75 953.554688 1263.28125 956.507812 1278.054688 952.914062 L 1273.519531 929.171875 L 1239.160156 929.171875 L 1236.25 944.421875 " fill-opacity="1" fill-rule="nonzero"/><path fill="rgb(65.489197%, 33.329773%, 27.059937%)" d="M 1215.96875 890.675781 C 1210.4375 891.527344 1206.921875 897.144531 1210.398438 905.027344 C 1213.328125 911.703125 1214.003906 917.949219 1219.542969 917.097656 C 1225.089844 916.261719 1228.78125 909.664062 1227.789062 902.363281 C 1226.820312 895.050781 1221.523438 889.824219 1215.96875 890.675781 " fill-opacity="1" fill-rule="nonzero"/><path fill="rgb(65.489197%, 33.329773%, 27.059937%)" d="M 1296.691406 890.679688 C 1291.148438 889.820312 1285.867188 895.050781 1284.867188 902.363281 C 1283.878906 909.664062 1287.578125 916.261719 1293.121094 917.101562 C 1298.667969 917.953125 1299.339844 911.699219 1302.289062 905.023438 C 1305.746094 897.144531 1302.238281 891.535156 1296.691406 890.679688 " fill-opacity="1" fill-rule="nonzero"/><path fill="rgb(65.489197%, 33.329773%, 27.059937%)" d="M 1218.457031 875.363281 C 1217.519531 878.71875 1217.03125 882.242188 1217.03125 885.878906 L 1217.03125 910.527344 C 1217.03125 932.234375 1234.617188 949.847656 1256.335938 949.847656 C 1278.054688 949.847656 1295.652344 932.234375 1295.652344 910.527344 L 1295.652344 885.878906 C 1295.652344 882.242188 1295.144531 878.71875 1294.234375 875.363281 C 1294.234375 875.363281 1282.632812 828.746094 1234.417969 849.65625 C 1226.246094 853.207031 1218.457031 875.363281 1218.457031 875.363281 " fill-opacity="1" fill-rule="nonzero"/><path fill="rgb(94.898987%, 94.898987%, 94.898987%)" d="M 1300.226562 916.007812 C 1300.226562 917.34375 1299.132812 918.441406 1297.796875 918.441406 C 1296.445312 918.441406 1295.371094 917.34375 1295.371094 916.007812 C 1295.371094 914.660156 1296.445312 913.570312 1297.796875 913.570312 C 1299.132812 913.570312 1300.226562 914.660156 1300.226562 916.007812 " fill-opacity="1" fill-rule="nonzero"/><path fill="rgb(94.898987%, 94.898987%, 94.898987%)" d="M 1217.363281 916.011719 C 1217.363281 917.347656 1216.265625 918.441406 1214.925781 918.441406 C 1213.578125 918.441406 1212.484375 917.347656 1212.484375 916.011719 C 1212.484375 914.664062 1213.578125 913.574219 1214.925781 913.574219 C 1216.265625 913.574219 1217.363281 914.664062 1217.363281 916.011719 " fill-opacity="1" fill-rule="nonzero"/><path fill="rgb(8.628845%, 11.369324%, 22.749329%)" d="M 1289.292969 833.292969 C 1288.28125 830.652344 1286.085938 828.34375 1283.097656 826.105469 C 1277.664062 822.015625 1270.113281 820.445312 1265.976562 827.273438 C 1259.132812 822.03125 1245.132812 822.792969 1240.527344 830.386719 C 1239.375 832.28125 1239.375 836.277344 1238.074219 837.726562 C 1236.867188 839.054688 1235.863281 838.242188 1234.09375 838.339844 C 1229.097656 838.59375 1223.855469 841.464844 1220.40625 844.976562 C 1217.707031 847.734375 1215.800781 851 1216.871094 854.964844 C 1212.738281 854.34375 1209.292969 860.988281 1208.339844 864.226562 C 1207.191406 868.273438 1207.3125 873.445312 1209.332031 877.183594 C 1210.59375 879.519531 1212.464844 881.449219 1214.78125 882.714844 C 1213.621094 882.082031 1212.691406 887.085938 1212.800781 887.753906 C 1213.09375 889.878906 1214.902344 891.074219 1215.929688 892.792969 C 1217.644531 895.628906 1219.054688 900.726562 1223.175781 897.207031 C 1226.402344 894.449219 1226.53125 888.570312 1222.945312 886.222656 C 1231.035156 888.332031 1238.269531 879.519531 1233.398438 872.304688 C 1236.945312 873.15625 1240.648438 873.980469 1244.273438 872.882812 C 1246.898438 872.082031 1251.207031 867.632812 1251.191406 864.097656 C 1255 868.519531 1263.242188 867.960938 1268.140625 866.132812 C 1271.121094 865.011719 1272.359375 862.078125 1274.695312 860.890625 C 1277.644531 859.417969 1283.085938 863.167969 1287.148438 861.886719 C 1292.363281 860.234375 1297.917969 854.019531 1295.820312 848.210938 C 1294.699219 845.089844 1291.589844 842.90625 1288.351562 842.46875 C 1290.117188 838.917969 1290.300781 835.9375 1289.292969 833.292969 " fill-opacity="1" fill-rule="nonzero"/><path fill="rgb(8.628845%, 11.369324%, 22.749329%)" d="M 1279.636719 855.003906 C 1274.722656 859.503906 1279.496094 868.980469 1284.773438 870.679688 C 1283.464844 872.496094 1283.292969 875.453125 1284.066406 877.507812 C 1285.171875 880.457031 1288.796875 880.554688 1289.890625 882.335938 C 1291.667969 885.230469 1286.652344 892.355469 1291.558594 894.203125 C 1291.445312 898.757812 1296.335938 896.425781 1297.402344 893.644531 C 1297.914062 892.277344 1297.648438 891.035156 1298.445312 889.835938 C 1299.523438 888.242188 1301.304688 887.914062 1302.042969 885.757812 C 1303.171875 882.457031 1301.054688 879.265625 1301.9375 876.085938 C 1303.03125 872.175781 1305.707031 867.710938 1300.84375 864.628906 C 1302.933594 861.425781 1303.105469 858.496094 1300.730469 855.082031 C 1298.945312 852.539062 1292.160156 848.09375 1289.320312 851.339844 L 1279.636719 855.003906 " fill-opacity="1" fill-rule="nonzero"/><path fill="rgb(8.628845%, 11.369324%, 22.749329%)" d="M 1087.46875 1043.953125 L 1084.390625 1045.796875 L 1084.390625 1042.8125 C 1084.390625 1040.597656 1082.574219 1038.777344 1080.359375 1038.777344 L 1065.136719 1038.777344 C 1062.925781 1038.777344 1061.101562 1040.597656 1061.101562 1042.8125 L 1061.101562 1055.011719 C 1061.101562 1057.230469 1062.925781 1059.046875 1065.136719 1059.046875 L 1080.359375 1059.046875 C 1082.574219 1059.046875 1084.390625 1057.230469 1084.390625 1055.011719 L 1084.390625 1052.023438 L 1087.46875 1053.878906 C 1089.125 1055.351562 1090.480469 1054.742188 1090.480469 1052.53125 L 1090.480469 1045.304688 C 1090.480469 1043.089844 1089.125 1042.480469 1087.46875 1043.953125 " fill-opacity="1" fill-rule="nonzero"/><path fill="rgb(8.628845%, 11.369324%, 22.749329%)" d="M 1075.792969 1028.644531 C 1064.621094 1028.644531 1055.523438 1037.746094 1055.523438 1048.90625 C 1055.523438 1060.085938 1064.621094 1069.179688 1075.792969 1069.179688 C 1086.960938 1069.179688 1096.058594 1060.085938 1096.058594 1048.90625 C 1096.058594 1037.746094 1086.960938 1028.644531 1075.792969 1028.644531 Z M 1075.792969 1070.601562 C 1063.832031 1070.601562 1054.109375 1060.871094 1054.109375 1048.90625 C 1054.109375 1036.953125 1063.832031 1027.230469 1075.792969 1027.230469 C 1087.75 1027.230469 1097.472656 1036.953125 1097.472656 1048.90625 C 1097.472656 1060.871094 1087.75 1070.601562 1075.792969 1070.601562 " fill-opacity="1" fill-rule="nonzero"/><path fill="rgb(8.628845%, 11.369324%, 22.749329%)" d="M 1144.867188 1055.144531 C 1147.976562 1055.144531 1150.511719 1052.613281 1150.511719 1049.492188 L 1150.511719 1039.375 C 1150.511719 1036.269531 1147.976562 1033.742188 1144.867188 1033.742188 C 1141.753906 1033.742188 1139.230469 1036.269531 1139.230469 1039.375 L 1139.230469 1049.492188 C 1139.230469 1052.613281 1141.753906 1055.144531 1144.867188 1055.144531 " fill-opacity="1" fill-rule="nonzero"/><path fill="rgb(8.628845%, 11.369324%, 22.749329%)" d="M 1152.25 1044.613281 L 1151.667969 1045.195312 L 1151.667969 1050.390625 C 1151.667969 1054.136719 1148.621094 1057.183594 1144.867188 1057.183594 C 1141.121094 1057.183594 1138.066406 1054.136719 1138.066406 1050.390625 L 1138.066406 1045.195312 L 1137.484375 1044.613281 L 1136.902344 1045.195312 L 1136.902344 1050.390625 C 1136.902344 1054.578125 1140.171875 1057.988281 1144.273438 1058.296875 L 1144.273438 1063.5 L 1144.867188 1064.074219 L 1145.457031 1063.5 L 1145.457031 1058.296875 C 1149.566406 1057.988281 1152.832031 1054.578125 1152.832031 1050.390625 L 1152.832031 1045.195312 L 1152.25 1044.613281 " fill-opacity="1" fill-rule="nonzero"/><path fill="rgb(8.628845%, 11.369324%, 22.749329%)" d="M 1144.867188 1028.644531 C 1133.695312 1028.644531 1124.597656 1037.746094 1124.597656 1048.90625 C 1124.597656 1060.085938 1133.695312 1069.179688 1144.867188 1069.179688 C 1156.039062 1069.179688 1165.136719 1060.085938 1165.136719 1048.90625 C 1165.136719 1037.746094 1156.039062 1028.644531 1144.867188 1028.644531 Z M 1144.867188 1070.601562 C 1132.90625 1070.601562 1123.183594 1060.871094 1123.183594 1048.90625 C 1123.183594 1036.953125 1132.90625 1027.230469 1144.867188 1027.230469 C 1156.828125 1027.230469 1166.554688 1036.953125 1166.554688 1048.90625 C 1166.554688 1060.871094 1156.828125 1070.601562 1144.867188 1070.601562 " fill-opacity="1" fill-rule="nonzero"/><path fill="rgb(100%, 100%, 100%)" d="M 1112.230469 818.449219 C 1108.597656 818.449219 1105.65625 815.515625 1105.65625 811.886719 C 1105.65625 808.269531 1108.597656 805.332031 1112.230469 805.332031 C 1115.84375 805.332031 1118.773438 808.269531 1118.773438 811.886719 C 1118.773438 815.515625 1115.84375 818.449219 1112.230469 818.449219 Z M 1086.4375 818.449219 C 1082.816406 818.449219 1079.882812 815.515625 1079.882812 811.886719 C 1079.882812 808.269531 1082.816406 805.332031 1086.4375 805.332031 C 1090.058594 805.332031 1093 808.269531 1093 811.886719 C 1093 815.515625 1090.058594 818.449219 1086.4375 818.449219 Z M 1060.664062 818.449219 C 1057.042969 818.449219 1054.109375 815.515625 1054.109375 811.886719 C 1054.109375 808.269531 1057.042969 805.332031 1060.664062 805.332031 C 1064.285156 805.332031 1067.21875 808.269531 1067.21875 811.886719 C 1067.21875 815.515625 1064.285156 818.449219 1060.664062 818.449219 Z M 1103.523438 797.355469 L 1039.925781 797.355469 L 1039.925781 826.421875 L 1471.320312 826.421875 L 1471.320312 797.355469 L 1103.523438 797.355469 " fill-opacity="1" fill-rule="nonzero"/></svg>